<svg width="115" height="114" viewBox="0 0 115 114" fill="none" xmlns="http://www.w3.org/2000/svg">
<g filter="url(#filter0_d_1009_785)">
<path d="M51.95 68.3C50.6833 68.3 49.5667 68.0417 48.6 67.525C47.6333 67.0083 46.875 66.3083 46.325 65.425C45.775 64.5417 45.3667 63.5833 45.1 62.55C44.8333 61.5167 44.7 60.4167 44.7 59.25C44.7 58.1 44.8333 57.0083 45.1 55.975C45.3833 54.925 45.8 53.9667 46.35 53.1C46.9167 52.2167 47.675 51.5167 48.625 51C49.5917 50.4667 50.7 50.2 51.95 50.2C54.6833 50.2 56.5667 51.25 57.6 53.35L55.65 54.35C55.1833 53.65 54.6667 53.125 54.1 52.775C53.55 52.4083 52.8333 52.225 51.95 52.225C50.7667 52.225 49.7833 52.6 49 53.35C48.2167 54.1 47.675 54.9833 47.375 56C47.0917 57 46.95 58.0833 46.95 59.25C46.95 61.1667 47.375 62.8167 48.225 64.2C49.075 65.5667 50.3167 66.25 51.95 66.25C53.5833 66.25 54.85 65.5083 55.75 64.025L57.75 64.775C57.2667 65.8417 56.5417 66.7 55.575 67.35C54.6083 67.9833 53.4 68.3 51.95 68.3Z" fill="#444E72"/>
<g filter="url(#filter1_d_1009_785)">
<path d="M63.232 50.984C62.6987 51.5067 62.048 51.768 61.28 51.768C60.512 51.768 59.856 51.5067 59.312 50.984C58.7787 50.4613 58.512 49.816 58.512 49.048C58.512 48.2693 58.7787 47.624 59.312 47.112C59.8453 46.5893 60.5013 46.328 61.28 46.328C62.0587 46.328 62.7093 46.5893 63.232 47.112C63.7653 47.624 64.032 48.2693 64.032 49.048C64.032 49.816 63.7653 50.4613 63.232 50.984ZM61.28 50.456C61.664 50.456 61.9787 50.3227 62.224 50.056C62.48 49.7893 62.608 49.4533 62.608 49.048C62.608 48.632 62.48 48.296 62.224 48.04C61.9787 47.7733 61.664 47.64 61.28 47.64C60.896 47.64 60.5707 47.7733 60.304 48.04C60.048 48.3067 59.92 48.6427 59.92 49.048C59.92 49.4427 60.0533 49.7787 60.32 50.056C60.5867 50.3227 60.9067 50.456 61.28 50.456Z" fill="#444E72"/>
</g>
</g>
<defs>
<filter id="filter0_d_1009_785" x="41.7" y="46.328" width="22.332" height="25.972" filterUnits="userSpaceOnUse" color-interpolation-filters="sRGB">
<feFlood flood-opacity="0" result="BackgroundImageFix"/>
<feColorMatrix in="SourceAlpha" type="matrix" values="0 0 0 0 0 0 0 0 0 0 0 0 0 0 0 0 0 0 127 0" result="hardAlpha"/>
<feOffset dx="-2" dy="3"/>
<feGaussianBlur stdDeviation="0.5"/>
<feColorMatrix type="matrix" values="0 0 0 0 0 0 0 0 0 0 0 0 0 0 0 0 0 0 0.1 0"/>
<feBlend mode="normal" in2="BackgroundImageFix" result="effect1_dropShadow_1009_785"/>
<feBlend mode="normal" in="SourceGraphic" in2="effect1_dropShadow_1009_785" result="shape"/>
</filter>
<filter id="filter1_d_1009_785" x="0.511963" y="0.327999" width="113.52" height="113.44" filterUnits="userSpaceOnUse" color-interpolation-filters="sRGB">
<feFlood flood-opacity="0" result="BackgroundImageFix"/>
<feColorMatrix in="SourceAlpha" type="matrix" values="0 0 0 0 0 0 0 0 0 0 0 0 0 0 0 0 0 0 127 0" result="hardAlpha"/>
<feMorphology radius="4" operator="dilate" in="SourceAlpha" result="effect1_dropShadow_1009_785"/>
<feOffset dx="-4" dy="8"/>
<feGaussianBlur stdDeviation="25"/>
<feColorMatrix type="matrix" values="0 0 0 0 0 0 0 0 0 0 0 0 0 0 0 0 0 0 0.1 0"/>
<feBlend mode="normal" in2="BackgroundImageFix" result="effect1_dropShadow_1009_785"/>
<feBlend mode="normal" in="SourceGraphic" in2="effect1_dropShadow_1009_785" result="shape"/>
</filter>
</defs>
</svg>
