<svg width="32" height="32" viewBox="0 0 32 32" fill="none" xmlns="http://www.w3.org/2000/svg">
<path d="M10.1733 4.76C10.4125 4.62954 10.6667 4.83024 10.6667 5.10269V23.3028C10.6667 23.5261 10.5158 23.7166 10.313 23.8099C10.2649 23.832 10.2185 23.8554 10.1733 23.88L7.04001 25.6667C4.85334 26.92 3.05334 25.88 3.05334 23.3467V10.3733C3.05334 9.53333 3.65334 8.49333 4.40001 8.06667L10.1733 4.76Z" fill="white"/>
<path d="M19.7219 8.18228C19.8922 8.26663 20 8.44027 20 8.63034V26.5366C20 26.9051 19.615 27.147 19.283 26.9871L13.283 24.0963C13.11 24.013 13 23.8379 13 23.6459V5.65891C13 5.28805 13.3896 5.04626 13.7219 5.21085L19.7219 8.18228Z" fill="white"/>
<path d="M29.3334 8.65333V21.6267C29.3334 22.4667 28.7334 23.5067 27.9867 23.9333L23.082 26.7443C22.7487 26.9353 22.3334 26.6947 22.3334 26.3105V8.34366C22.3334 8.16414 22.4296 7.9984 22.5855 7.90942L25.3467 6.33333C27.5334 5.08 29.3334 6.12 29.3334 8.65333Z" fill="white"/>
</svg>
