<svg width="30" height="30" viewBox="0 0 30 30" fill="none" xmlns="http://www.w3.org/2000/svg">
<path d="M26.9126 19.9125C26.7126 19.575 26.1501 19.05 24.7501 19.3C23.9751 19.4375 23.1876 19.5 22.4001 19.4625C19.4876 19.3375 16.8501 18 15.0126 15.9375C13.3876 14.125 12.3876 11.7625 12.3751 9.21246C12.3751 7.78746 12.6501 6.41246 13.2126 5.11246C13.7626 3.84996 13.3751 3.18746 13.1001 2.91246C12.8126 2.62496 12.1376 2.22496 10.8126 2.77496C5.70012 4.92496 2.53762 10.05 2.91262 15.5375C3.28762 20.7 6.91262 25.1125 11.7126 26.775C12.8626 27.175 14.0751 27.4125 15.3251 27.4625C15.5251 27.475 15.7251 27.4875 15.9251 27.4875C20.1126 27.4875 24.0376 25.5125 26.5126 22.15C27.3501 20.9875 27.1251 20.25 26.9126 19.9125Z" fill="#FFD130"/>
</svg>
