<svg width="125" height="125" viewBox="0 0 125 125" fill="none" xmlns="http://www.w3.org/2000/svg">
<g opacity="0.4">
<path d="M1.45131 124.778C0.669881 124.167 -0.0749298 123.499 0.373783 122.351C0.822496 121.203 1.72908 121.115 2.76082 121.115C6.72902 121.115 10.6972 121.096 14.6654 121.081H32.3698H37.7635H53.6149H58.7034C59.1888 121.096 59.6771 121.124 60.1625 121.124H98.6236C101.066 121.124 103.489 121.099 105.925 121.084C111.386 121.099 116.85 121.133 122.314 121.109C123.449 121.109 124.386 121.316 125 122.33V124.771L1.45131 124.778Z" fill="#29B188"/>
<path d="M105.943 121.081C103.501 121.096 101.059 121.118 98.6415 121.121H60.1835C59.6981 121.121 59.2097 121.093 58.7244 121.078C58.7244 109.134 58.7244 97.1864 58.7518 85.239C58.7518 84.2164 59.0571 83.1938 59.2158 82.1865L59.7103 82.1377H79.7864L102.323 82.1774C105.155 82.1774 105.967 82.9771 105.964 85.7671C105.956 97.5333 105.949 109.305 105.943 121.081ZM79.6918 104.292C85.1313 104.292 90.5718 104.292 96.0133 104.292C97.3778 104.292 98.2141 103.606 98.2111 102.556C98.2111 101.377 97.4022 100.645 96.0316 100.645C85.2279 100.645 74.4273 100.645 63.6297 100.645C62.2042 100.645 61.4044 101.329 61.4075 102.476C61.4105 103.624 62.1798 104.308 63.6114 104.308L79.6918 104.292ZM79.8047 94.7871H90.4029C92.268 94.7871 94.1361 94.7871 96.0011 94.7871C97.3717 94.7871 98.2111 94.1125 98.2141 93.0686C98.2141 91.8842 97.4144 91.1669 96.053 91.1333H63.9014C63.6583 91.1211 63.4148 91.1211 63.1718 91.1333C62.7272 91.1817 62.3157 91.391 62.0149 91.7219C61.714 92.0528 61.5446 92.4823 61.5386 92.9294C61.5326 93.3766 61.6904 93.8105 61.9823 94.1493C62.2741 94.4882 62.6799 94.7085 63.123 94.7688C63.4473 94.7887 63.7724 94.7887 64.0967 94.7688L79.8047 94.7871ZM79.8505 113.798C85.29 113.798 90.7326 113.798 96.1721 113.798C97.274 113.798 97.9761 113.331 98.1897 112.29C98.4034 111.249 97.68 110.4 96.4956 110.178C96.1741 110.133 95.8491 110.119 95.5249 110.135H64.0845C62.2286 110.135 61.3739 110.745 61.3953 112.009C61.4166 113.273 62.1981 113.789 64.0021 113.789L79.8505 113.798Z" fill="#FE788F"/>
<path d="M66.5212 82.1225H59.702C59.1403 81.9608 58.5817 81.6616 58.0231 81.6586C52.2631 81.625 46.5031 81.6128 40.7462 81.6586C39.9983 81.6586 39.2566 82.1164 38.5118 82.3637H37.7761V75.0378H38.5148C39.1772 75.285 39.8365 75.7368 40.502 75.7429C46.4543 75.8009 52.4066 75.7795 58.365 75.7734C59.6135 75.7734 60.3827 75.1232 60.4315 74.064C60.4834 72.9194 59.821 72.2325 58.481 72.1104C58.072 71.8693 57.6629 71.4267 57.26 71.4206C51.9915 71.3738 46.7209 71.3738 41.4482 71.4206C41.0361 71.4206 40.6271 71.8693 40.2272 72.1104L38.7712 72.611H37.8005V65.7979L38.5392 65.5415C39.1986 65.7888 39.8579 66.2436 40.5203 66.2497C46.4299 66.3077 52.3364 66.2802 58.2429 66.2863C59.2747 66.2863 60.1477 65.9567 60.4102 64.9219C60.7154 63.7742 60.1049 62.9897 58.9938 62.6203C58.5848 62.3792 58.1758 61.9335 57.7728 61.9274C52.1746 61.8826 46.5784 61.8826 40.9843 61.9274C40.5722 61.9274 40.1631 62.3792 39.7633 62.6234L38.7926 63.1179H37.8219V56.0484H38.7712C39.3023 56.2926 39.8304 56.7413 40.3646 56.7443C46.3993 56.7962 52.431 56.787 58.4657 56.7687C59.6165 56.7687 60.3644 56.0819 60.4712 55.0624C60.5781 54.0429 59.9706 53.3897 58.771 53.1119C58.4413 52.9135 58.1117 52.5472 57.7789 52.5441C52.1929 52.5095 46.6059 52.5095 41.0178 52.5441C40.5997 52.5441 40.1815 52.9104 39.7633 53.1088H39.2901L38.0691 53.3469C37.9898 51.0698 37.9125 48.7947 37.8372 46.5216H38.7895C39.3603 46.7627 39.9312 47.2115 40.5081 47.2176C46.4299 47.2695 52.3547 47.2542 58.2795 47.245C59.6684 47.245 60.4682 46.5399 60.4926 45.3647C60.514 44.2567 59.6806 43.5943 58.2399 43.5943C52.3588 43.5943 46.4746 43.5943 40.5874 43.5943C40.0735 43.6355 39.5633 43.7151 39.0612 43.8324H38.0753V37.7274L38.5545 36.9948L39.2901 36.0272L39.5466 35.5602L43.4323 35.5327H61.0542C61.7044 35.5327 62.3546 35.5327 63.0017 35.5571C65.4437 35.6121 66.5792 36.7384 66.5823 39.1621C66.5823 42.8251 66.5823 46.4697 66.5823 50.1235L66.5212 82.1225Z" fill="#BFCCCD"/>
<path d="M32.3815 121.084H19.7321C19.7321 118.659 19.7321 116.235 19.7321 113.813H26.2705C27.3022 113.813 28.1234 113.282 28.16 112.308C28.1814 111.698 27.6044 110.99 27.1252 110.492C26.8474 110.205 26.2095 110.187 25.7546 110.172C23.7858 110.138 21.8139 110.172 19.7932 110.172V104.305C22.0032 104.305 24.149 104.305 26.2919 104.305C27.3236 104.305 28.0226 103.768 28.2119 102.779C28.2671 102.58 28.2818 102.373 28.2549 102.169C28.2281 101.965 28.1603 101.769 28.0557 101.592C27.951 101.415 27.8117 101.261 27.646 101.139C27.4804 101.017 27.2918 100.93 27.0916 100.883C26.671 100.747 26.2331 100.672 25.7913 100.66C23.8133 100.636 21.8231 100.66 19.7962 100.66V94.7994C21.8963 94.7994 23.9537 94.7994 26.0141 94.7994C27.3999 94.7994 28.2729 94.0607 28.2546 92.9496C28.2363 91.8385 27.3786 91.1548 25.9653 91.1487C23.914 91.1487 21.8597 91.1487 19.784 91.1487V85.294C21.6918 85.294 23.5477 85.294 25.4036 85.294C26.6887 85.294 27.5403 84.5187 27.5403 83.4626C27.5403 82.4064 26.6826 81.6708 25.3731 81.6616C23.5233 81.6464 21.6735 81.6616 19.7962 81.6616V75.7887C21.7071 75.7887 23.563 75.7887 25.4189 75.7887C26.704 75.7887 27.5556 75.0164 27.5556 73.9572C27.5556 72.898 26.6979 72.1654 25.3914 72.1562C23.5386 72.141 21.6888 72.1562 19.7596 72.1562C19.7596 70.4987 19.8298 68.8779 19.7382 67.2723C19.665 65.9841 20.1076 65.0714 21.2003 64.4365H32.3999C32.3836 83.3048 32.3775 102.187 32.3815 121.084Z" fill="#F9C049"/>
<path d="M32.382 121.084C32.382 102.187 32.382 83.2912 32.382 64.3965C32.382 56.0877 32.4767 47.7788 32.382 39.47C32.3424 36.3901 33.9999 35.4499 36.3503 35.5812C36.8356 35.6056 37.324 35.5812 37.8093 35.5812L39.5096 35.6025L39.2532 36.0696L38.4931 37.0494L38.0139 37.782C38.0139 39.817 38.0139 41.8519 38.0139 43.8869C37.9345 44.7782 37.8572 45.6716 37.7819 46.567C37.8592 48.8401 37.9365 51.1152 38.0139 53.3923C37.9345 54.2836 37.8572 55.177 37.7819 56.0724V121.09L32.382 121.084Z" fill="#AEBBBB"/>
<path d="M21.1705 64.4054C20.0777 65.0404 19.6442 65.953 19.7083 67.2412C19.7999 68.8529 19.7297 70.4737 19.7297 72.1251C21.6588 72.1251 23.5086 72.1251 25.3615 72.1251C26.668 72.1251 27.4982 72.8547 27.5257 73.9261C27.5532 74.9975 26.6893 75.7576 25.389 75.7576C23.5331 75.7728 21.6772 75.7576 19.7663 75.7576V81.6061C21.6436 81.6061 23.4934 81.6061 25.3432 81.6061C26.6527 81.6061 27.4952 82.3326 27.5104 83.4071C27.5257 84.4815 26.6741 85.2385 25.3737 85.2385C23.5178 85.2538 21.6619 85.2385 19.7541 85.2385V91.0871C21.8298 91.0871 23.8841 91.0871 25.9354 91.0871C27.3487 91.0871 28.2094 91.78 28.2247 92.888C28.24 93.9961 27.37 94.7195 25.9842 94.7378C23.9238 94.7378 21.8664 94.7378 19.7663 94.7378V100.586C21.8084 100.586 23.7834 100.586 25.7614 100.586C26.2032 100.598 26.6411 100.673 27.0617 100.809C27.2619 100.856 27.4505 100.943 27.6162 101.065C27.7818 101.187 27.9211 101.341 28.0258 101.518C28.1304 101.695 28.1982 101.892 28.225 102.096C28.2519 102.299 28.2372 102.507 28.182 102.705C27.9927 103.691 27.2937 104.231 26.262 104.231C24.1252 104.231 21.9733 104.231 19.7633 104.231V110.08C21.784 110.08 23.7559 110.061 25.7247 110.08C26.1948 110.08 26.8175 110.113 27.0953 110.4C27.5745 110.898 28.1515 111.621 28.1301 112.216C28.0935 113.19 27.2723 113.718 26.2406 113.721H19.7297C19.7297 116.139 19.7297 118.562 19.7297 120.992H14.6626C14.6626 103.084 14.6626 85.1846 14.6626 67.2931C14.6626 65.0648 15.4593 64.265 17.6479 64.2681C18.817 64.3566 19.9953 64.3871 21.1705 64.4054Z" fill="#F7A84A"/>
<path d="M95.2873 7.8833C102.161 9.16534 106.826 14.6354 106.719 21.2836C106.612 27.7457 101.316 33.7163 95.3087 34.1406C95.0019 33.9582 94.6803 33.8019 94.3472 33.6736C91.8949 32.919 89.7148 31.4679 88.0722 29.4969C86.4296 27.5259 85.3953 25.1199 85.0951 22.5718C84.4846 17.0773 87.2868 11.4242 92.6225 9.11955C93.5108 8.73188 94.3899 8.29844 95.2873 7.8833Z" fill="#F9C049"/>
<path d="M60.9931 35.5663H43.3712C43.3712 32.7001 43.3712 29.8338 43.3712 26.9645C43.3712 25.7435 43.243 24.4828 44.0977 23.4297L45.0501 23.3687H50.4468H53.6336C55.1598 23.3839 56.7044 23.3931 58.2398 23.4114C60.233 23.4389 60.9534 24.1501 60.9656 26.1006C60.9799 29.2569 60.989 32.4121 60.9931 35.5663Z" fill="#A5AFAF"/>
<path d="M79.7781 82.1218H71.399C71.399 72.8464 71.4072 63.5699 71.4235 54.2925C73.8654 56.3437 76.3135 58.394 78.7677 60.4432C79.6621 61.1972 79.7781 62.2167 79.775 63.3064C79.7669 69.5803 79.7679 75.8521 79.7781 82.1218Z" fill="#1B9AAE"/>
<path d="M71.4228 54.2928C71.4228 63.5703 71.4147 72.8467 71.3984 82.1222H66.5145V50.1567L71.4228 54.2928Z" fill="#0E7C95"/>
<path d="M95.2869 7.88327C94.3986 8.29841 93.5195 8.73186 92.6221 9.11952C87.2864 11.4241 84.4842 17.0559 85.0947 22.5717C85.3948 25.1199 86.4291 27.5258 88.0718 29.4969C89.7144 31.4679 91.8945 32.919 94.3468 33.6736C94.6798 33.8019 95.0015 33.9581 95.3082 34.1406C92.1764 34.7969 89.2735 34.0918 86.5935 32.4923C81.5783 29.5009 79.3683 24.1926 80.2779 18.7928C80.7386 16.0076 82.0793 13.4433 84.1036 11.4756C86.1278 9.50792 88.7292 8.24041 91.5263 7.85885C92.7442 7.68486 94.0232 7.86496 95.2869 7.88327Z" fill="#F7A749"/>
<path d="M44.0942 23.4359C43.2395 24.489 43.3616 25.7375 43.3678 26.9707C43.3678 29.84 43.3678 32.7063 43.3678 35.5725L39.482 35.6L37.7817 35.5786C37.7817 32.3735 37.7817 29.1695 37.7817 25.9664C37.7817 24.0312 38.4075 23.4023 40.3153 23.4023C41.579 23.4023 42.8366 23.4237 44.0942 23.4359Z" fill="#989F9F"/>
<path d="M47.5069 14.3544V2.93813C47.4901 2.61479 47.4901 2.29079 47.5069 1.96745C47.629 0.74646 48.3921 -0.041078 49.3963 0.0016565C50.4006 0.0443911 51.1393 0.859399 51.1454 2.08954C51.1637 6.17985 51.1454 10.2671 51.1454 14.3574L47.5069 14.3544Z" fill="#A4D8F3"/>
<path d="M47.5072 14.355H51.1701C50.407 15.8812 50.3734 17.5051 50.4223 19.1565C50.465 20.5607 50.4223 21.9678 50.4223 23.372H45.0255C45.0255 21.1905 45.0306 19.008 45.0408 16.8244C45.0682 14.9441 45.5658 14.4435 47.5072 14.355Z" fill="#AFBBBB"/>
<path d="M50.4434 23.3827C50.4434 21.9786 50.4739 20.5714 50.4434 19.1673C50.3945 17.5159 50.4434 15.8859 51.1912 14.3657C53.1417 14.671 53.6332 15.2174 53.6332 17.0946C53.6332 19.1866 53.6332 21.2785 53.6332 23.3705L50.4434 23.3827Z" fill="#BFCCCD"/>
<path d="M37.7761 121.078V82.3691H38.5118C38.0966 84.6219 38.6552 85.2873 40.9537 85.2873H53.5696V91.1328C49.2381 91.1328 44.9067 91.0901 40.5752 91.1786C39.8854 91.1786 38.9269 91.5998 38.5759 92.1401C37.7029 93.4801 38.6827 94.7805 40.4531 94.7866C44.8243 94.7866 49.1984 94.7866 53.5787 94.7866V100.632C49.3694 100.632 45.16 100.632 40.9507 100.632C40.3881 100.626 39.8287 100.716 39.2962 100.898C39.0775 100.98 38.8791 101.109 38.7148 101.275C38.5505 101.442 38.4242 101.642 38.3444 101.861C38.2647 102.081 38.2334 102.316 38.2528 102.549C38.2722 102.782 38.3418 103.008 38.4568 103.211C38.8994 104.103 39.6778 104.289 40.5935 104.286C44.925 104.268 49.2565 104.286 53.5879 104.286V110.131C49.2931 110.131 44.9952 110.131 40.7004 110.131C39.223 110.131 38.2218 110.98 38.2737 112.128C38.3225 113.15 39.2382 113.779 40.7004 113.782H53.5879L53.6337 121.053L37.7761 121.078Z" fill="#BFCCCD"/>
<path d="M53.5807 110.153V85.297C53.7364 82.9222 54.5575 82.1377 56.9049 82.1377C57.6711 82.1377 58.4311 82.1591 59.2064 82.1713C59.0447 83.1938 58.7455 84.2164 58.7425 85.2237C58.7059 97.1711 58.7181 109.118 58.715 121.063H53.6265L53.5807 113.792V110.153Z" fill="#FB5C70"/>
<path d="M79.6888 104.304H63.6084C62.1768 104.304 61.4075 103.663 61.4045 102.473C61.4014 101.282 62.2012 100.641 63.6267 100.641C74.4263 100.641 85.227 100.641 96.0287 100.641C97.3992 100.641 98.202 101.374 98.2081 102.552C98.2081 103.602 97.3748 104.286 96.0103 104.289C90.5708 104.307 85.1303 104.312 79.6888 104.304Z" fill="#FB5B6F"/>
<path d="M79.802 94.7989H64.097C63.7727 94.8188 63.4476 94.8188 63.1233 94.7989C62.6802 94.7386 62.2744 94.5183 61.9826 94.1795C61.6907 93.8406 61.5329 93.4067 61.5389 92.9596C61.5449 92.5124 61.7143 92.0829 62.0152 91.752C62.316 91.4212 62.7275 91.2118 63.1721 91.1635C63.4151 91.1512 63.6586 91.1512 63.9017 91.1635H96.0472C97.4086 91.197 98.2114 91.9143 98.2083 93.0987C98.2083 94.1427 97.3659 94.8081 95.9953 94.8172C94.1302 94.8172 92.2621 94.8172 90.3971 94.8172L79.802 94.7989Z" fill="#FB5B6F"/>
<path d="M79.8479 113.81H64.0117C62.2077 113.81 61.4262 113.276 61.4049 112.03C61.3835 110.785 62.2382 110.156 64.0941 110.156H95.5345C95.8587 110.14 96.1837 110.154 96.5052 110.199C97.6896 110.422 98.41 111.267 98.1993 112.311C97.9887 113.355 97.2836 113.837 96.1817 113.819C90.7299 113.798 85.2874 113.81 79.8479 113.81Z" fill="#FB5B6F"/>
<path d="M59.2068 82.1709C58.4407 82.1709 57.6806 82.1373 56.9053 82.1373C54.5579 82.1373 53.7368 82.9218 53.5812 85.2966H40.9531C38.6424 85.2966 38.0838 84.6312 38.5111 82.3784C39.2559 82.1312 39.9977 81.6825 40.7455 81.6733C46.5025 81.6153 52.2625 81.6275 58.0225 81.6733C58.5811 81.6733 59.1397 81.9786 59.7013 82.1373L59.2068 82.1709Z" fill="#A5AEAE"/>
<path d="M58.4805 72.1222C59.8052 72.2535 60.4829 72.9311 60.431 74.0758C60.3822 75.135 59.6129 75.7852 58.3645 75.7852C52.4091 75.7852 46.4599 75.8126 40.5014 75.7546C39.836 75.7546 39.1767 75.2968 38.5112 75.0495C38.5906 74.2406 38.6669 73.4317 38.7463 72.6075L40.2023 72.1069L58.4805 72.1222Z" fill="#A5AFAF"/>
<path d="M58.9631 62.6201C60.0864 62.9895 60.6695 63.7739 60.3795 64.9217C60.117 65.9565 59.244 66.2892 58.2122 66.2861C52.3057 66.2861 46.3992 66.3075 40.4896 66.2495C39.8272 66.2495 39.1679 65.7886 38.5085 65.5413C38.5849 64.7355 38.6642 63.9266 38.7405 63.1177L39.7112 62.6232L58.9631 62.6201Z" fill="#A5AFAF"/>
<path d="M38.9911 43.863C39.4932 43.7457 40.0033 43.6661 40.5173 43.6249C46.4025 43.6107 52.2866 43.6107 58.1697 43.6249C59.6105 43.6249 60.4438 44.2873 60.4225 45.3954C60.398 46.5706 59.5983 47.2757 58.2094 47.2757C52.2846 47.2757 46.3597 47.3001 40.4379 47.2482C39.861 47.2482 39.2902 46.7934 38.7194 46.5523C38.0082 45.5694 38.2676 44.6964 38.9911 43.863Z" fill="#A5AFAF"/>
<path d="M58.7248 53.1113C59.9244 53.3891 60.5288 54.082 60.425 55.0619C60.3212 56.0417 59.5703 56.7651 58.4196 56.7682C52.3848 56.7865 46.3532 56.7957 40.3184 56.7438C39.7842 56.7438 39.2562 56.292 38.725 56.0478C37.8795 54.894 38.4198 53.9874 39.244 53.1296H39.7171L58.7248 53.1113Z" fill="#A5AFAF"/>
<path d="M58.9628 62.6202H39.7323C40.1413 62.376 40.5504 61.9303 40.9533 61.9242C46.5474 61.8794 52.1436 61.8794 57.7419 61.9242C58.1509 61.9334 58.5599 62.3851 58.9628 62.6202Z" fill="#BFCCCD"/>
<path d="M58.4803 72.1224H40.2021C40.6142 71.8813 41.0233 71.4387 41.4231 71.4326C46.6937 71.3858 51.9643 71.3858 57.2349 71.4326C57.6623 71.4387 58.0713 71.8813 58.4803 72.1224Z" fill="#BFCCCD"/>
<path d="M58.7254 53.1113H39.7177C40.1358 52.9129 40.554 52.5496 40.9722 52.5466C46.5623 52.5079 52.1493 52.5079 57.7333 52.5466C58.066 52.5466 58.3957 52.922 58.7254 53.1113Z" fill="#BFCCCD"/>
<path d="M39.2444 53.1299C38.4141 53.9876 37.8799 54.8942 38.7254 56.048H37.7761C37.8535 55.1527 37.9308 54.2593 38.0081 53.368L39.2444 53.1299Z" fill="#BFCCCD"/>
<path d="M38.991 43.8623C38.2676 44.6956 38.0081 45.5686 38.7285 46.5424H37.7761C37.8535 45.649 37.9308 44.7557 38.0081 43.8623H38.991Z" fill="#BFCCCD"/>
<path d="M38.7468 63.1178C38.6705 63.9267 38.5911 64.7356 38.5148 65.5415L37.7761 65.7979V63.1147L38.7468 63.1178Z" fill="#BFCCCD"/>
<path d="M38.7468 72.6226C38.6674 73.4315 38.5911 74.2404 38.5118 75.0645H37.7761V72.6226H38.7468Z" fill="#BFCCCD"/>
<path d="M38.4932 37.0497L39.2288 36.082L38.4932 37.0497Z" fill="#BFCCCD"/>
<path d="M38.0143 37.7663L38.4935 37.0337L38.0143 37.7663Z" fill="#BFCCCD"/>
<path d="M53.5814 91.1426V94.8056C49.2102 94.8056 44.836 94.8056 40.4557 94.8056C38.6853 94.8056 37.7085 93.4991 38.5785 92.1591C38.9295 91.6188 39.888 91.2098 40.5778 91.1976C44.9215 91.0999 49.2499 91.1426 53.5814 91.1426Z" fill="#A5AFAF"/>
<path d="M53.5816 100.648V104.311C49.2502 104.311 44.9187 104.311 40.5873 104.311C39.6715 104.311 38.9023 104.128 38.4505 103.236C38.3355 103.033 38.266 102.807 38.2466 102.574C38.2272 102.341 38.2584 102.106 38.3381 101.886C38.4179 101.667 38.5442 101.467 38.7085 101.3C38.8728 101.134 39.0712 101.005 39.29 100.923C39.8224 100.741 40.3818 100.651 40.9444 100.657C45.1629 100.639 49.3723 100.648 53.5816 100.648Z" fill="#A5AFAF"/>
<path d="M53.5817 110.153V113.816H40.6941C39.232 113.816 38.3163 113.184 38.2674 112.161C38.2155 111.014 39.2168 110.168 40.6941 110.165C44.989 110.147 49.2868 110.153 53.5817 110.153Z" fill="#A5AFAF"/>
</g>
</svg>
