<svg width="321" height="293" viewBox="0 0 321 293" fill="none" xmlns="http://www.w3.org/2000/svg">
<g filter="url(#filter0_di_263_3829)">
<path d="M169.475 131.798C169.425 132.568 169.371 133.341 169.318 134.111L169.703 134.281C169.969 133.982 170.196 133.651 170.378 133.295C172.614 127.016 176.956 123.097 183.567 121.673C189.809 120.332 196.869 123.086 200.576 128.351C198.923 129.255 197.248 130.117 195.62 131.078C194.837 131.53 194.137 132.119 193.402 132.646L192.613 131.939C191.554 130.971 190.265 130.283 188.866 129.94C187.466 129.597 186.001 129.611 184.608 129.979C183.215 130.347 181.939 131.058 180.899 132.045C179.859 133.033 179.089 134.265 178.66 135.626C178.274 136.82 178.281 137.745 179.546 138.395C179.956 138.61 180.26 139.055 180.595 139.394C178.453 140.687 176.331 141.961 174.228 143.279C173.882 143.567 173.578 143.901 173.324 144.271C166.864 140.432 159.468 143.671 157.39 149.642C157.08 150.42 156.542 151.089 155.843 151.56C154.94 152.125 154.169 152.874 153.582 153.757C152.994 154.64 152.604 155.637 152.436 156.68C151.029 157.408 149.633 158.149 148.215 158.852C146.962 159.474 145.69 160.053 144.426 160.653C143.333 157.087 143.712 153.523 145.648 150.49C148.008 146.817 150.947 143.512 153.636 140.047C153.661 140.016 153.715 140.005 153.754 139.987C154.31 139.863 154.852 139.684 155.372 139.454C158.207 137.89 161.004 136.255 163.843 134.697C165.689 133.691 167.593 132.766 169.475 131.798Z" fill="white"/>
<path d="M144.415 160.664C145.679 160.064 146.951 159.484 148.204 158.863C149.633 158.157 151.018 157.418 152.425 156.691C152.358 161.088 155.804 163.754 159.729 163.62C164.525 163.45 169.328 163.62 174.128 163.62C173.883 163.955 173.595 164.256 173.271 164.517C169.557 166.685 165.821 168.818 162.111 170.997C161.753 171.205 161.55 171.668 161.271 172.01C158.772 172.162 156.272 172.109 153.904 171.159C152.9 170.757 152.436 171.117 151.815 171.866C147.665 176.87 143.43 181.806 139.266 186.796C136.766 189.788 133.712 189.653 131.37 186.86C127.877 182.693 124.316 178.579 120.788 174.443C121.224 174.249 121.67 174.09 122.092 173.85C124.174 172.727 126.248 171.59 128.327 170.46L135.169 178.498C135.345 178.398 135.509 178.28 135.659 178.144C139.005 174.03 142.362 169.923 145.658 165.784C145.915 165.456 145.844 164.725 145.704 164.262C145.34 163.03 144.851 161.854 144.415 160.664Z" fill="white"/>
<path d="M161.271 172.01C161.55 171.657 161.754 171.205 162.111 170.997C165.821 168.818 169.557 166.685 173.271 164.517C173.596 164.256 173.885 163.953 174.128 163.616C177.599 163.616 181.074 163.68 184.542 163.528C185.816 163.462 187.057 163.099 188.163 162.468C190.959 160.844 192.166 156.917 189.795 153.287C192.677 151.662 195.544 150.013 198.448 148.431C199.273 148.043 200.124 147.711 200.994 147.435C200.344 148.269 199.776 149.183 199.023 149.907C198.269 150.631 198.155 151.164 198.534 152.093C199.37 154.024 199.745 156.12 199.63 158.218C199.514 160.316 198.91 162.359 197.866 164.188C195.112 169.192 190.723 171.918 184.959 172.003C177.063 172.141 169.167 172.024 161.271 172.01Z" fill="white"/>
<path d="M200.994 147.446C200.124 147.721 199.273 148.054 198.448 148.442C195.544 150.024 192.677 151.673 189.795 153.297C189.048 152.447 188.109 151.783 187.054 151.359C185.999 150.935 184.858 150.763 183.724 150.857C182.881 150.91 182.031 150.857 181.188 150.857C179.324 150.885 178.077 150.027 177.017 148.509C175.956 146.99 174.56 145.684 173.313 144.271C173.567 143.901 173.871 143.567 174.217 143.279C176.32 141.954 178.456 140.68 180.584 139.394C181.267 140.1 182.042 140.711 182.606 141.485C183.113 142.191 183.677 142.311 184.491 142.428C186.513 142.658 188.509 143.068 190.455 143.653C192.777 144.416 192.955 144.493 194.202 142.325C194.546 141.709 194.814 141.055 195.001 140.376C195.812 137.551 195.066 134.99 193.391 132.646C194.127 132.119 194.819 131.53 195.609 131.078C197.237 130.131 198.912 129.255 200.565 128.351C204.808 133.747 204.997 142.265 200.994 147.446Z" fill="white"/>
<path d="M101.097 127.553C101.35 123.16 102.354 118.965 104.439 115.052C105.068 114.939 105.782 114.978 106.304 114.699C110.635 112.266 114.924 109.755 119.238 107.283C125.249 103.854 131.277 100.45 137.28 97.01C137.666 96.7875 137.919 96.3425 138.237 96C142.112 96.0742 145.708 97.2077 149.19 98.8004C149.547 98.9629 149.904 99.0971 150.262 99.2489C150.008 99.5809 149.829 100.033 149.494 100.231C147.708 101.29 145.898 102.254 144.137 103.328C143.374 103.851 142.646 104.423 141.959 105.04C141.244 104.913 140.562 104.783 139.862 104.666C131.673 103.314 124.435 105.344 118.167 110.698C114.357 113.954 111.964 118.114 110.41 122.803C109.2 123.407 107.982 124.001 106.778 124.615C104.904 125.586 103.007 126.586 101.097 127.553Z" fill="white"/>
<path d="M138.237 96C137.919 96.3531 137.666 96.7875 137.28 97.01C131.277 100.45 125.248 103.854 119.238 107.283C114.924 109.755 110.635 112.252 106.303 114.699C105.782 114.992 105.067 114.953 104.439 115.052C106.842 109.603 110.742 105.394 115.56 101.965C119.452 99.1924 123.774 97.2254 128.484 96.4909C131.694 95.9965 134.994 96.1413 138.237 96Z" fill="white"/>
<path d="M128.327 170.464C126.249 171.594 124.174 172.731 122.092 173.854C121.67 174.08 121.224 174.253 120.788 174.447L112.467 162.546C112.935 162.302 113.41 162.073 113.874 161.819C115.864 160.724 117.853 159.619 119.838 158.52C122.667 162.501 125.496 166.482 128.327 170.464Z" fill="white"/>
<path d="M169.474 131.798C167.592 132.766 165.689 133.691 163.832 134.708C160.993 136.265 158.196 137.886 155.361 139.465C154.841 139.695 154.299 139.874 153.743 139.998C155.472 138.716 157.104 137.275 158.961 136.219C160.007 135.626 160.596 135.043 160.682 133.903C160.775 132.681 161.039 131.431 160.964 130.237C160.786 127.765 160.425 125.293 160.139 122.821C160.637 122.657 161.123 122.462 161.596 122.238C163.635 121.123 165.66 119.975 167.689 118.841C169.242 122.977 169.852 127.402 169.474 131.798Z" fill="white"/>
<path d="M141.987 105.044C142.675 104.427 143.402 103.855 144.165 103.331C145.926 102.272 147.736 101.297 149.522 100.234C149.858 100.036 150.036 99.5844 150.29 99.2524C154.435 101.137 158.097 103.922 161.004 107.399C159.657 108.293 158.3 109.165 156.964 110.087C155.968 110.768 155.004 111.499 154.022 112.206C150.683 108.855 146.544 106.392 141.987 105.044Z" fill="white"/>
<path d="M101.096 127.553C102.996 126.572 104.893 125.586 106.81 124.615C108.014 124.001 109.232 123.407 110.442 122.803C109.285 127.363 109.407 131.939 110.257 136.527C109.271 136.982 108.282 137.424 107.303 137.89C105.66 138.677 104.028 139.475 102.389 140.27C101.396 136.085 100.739 131.883 101.096 127.553Z" fill="white"/>
<path d="M154.04 112.188C155.022 111.482 155.986 110.775 156.982 110.069C158.318 109.158 159.675 108.275 161.021 107.382C164.095 110.642 166.376 114.553 167.689 118.817C165.66 119.95 163.635 121.098 161.596 122.214C161.123 122.438 160.637 122.632 160.139 122.796C158.889 118.873 156.81 115.257 154.04 112.188Z" fill="white"/>
<path d="M119.838 158.52C117.853 159.619 115.864 160.724 113.874 161.819C113.41 162.073 112.935 162.302 112.467 162.546L106.607 151.694C107.307 151.17 108.036 150.685 108.789 150.239C110.489 149.339 112.232 148.516 113.957 147.661L119.838 158.52Z" fill="white"/>
<path d="M113.953 147.661C112.228 148.516 110.485 149.339 108.785 150.239C108.032 150.685 107.303 151.17 106.603 151.694C105.279 148.179 103.956 144.664 102.632 141.149C102.525 140.863 102.464 140.563 102.382 140.27C104.021 139.475 105.653 138.677 107.296 137.89C108.274 137.424 109.264 136.982 110.246 136.527L113.953 147.661Z" fill="white"/>
<path d="M174.903 120.187C173.885 119.558 172.549 119.145 171.914 118.248C170.734 116.544 169.775 114.702 169.057 112.764C168.307 110.786 169.435 108.724 171.367 107.869C173.299 107.015 175.542 107.548 176.66 109.349C177.627 110.882 178.463 112.492 179.16 114.162C180.27 116.899 178.07 119.897 175.11 119.862L174.903 120.187Z" fill="white"/>
<path d="M213.707 135.241C214.836 135.322 216.125 135.375 217.404 135.52C219.361 135.739 220.996 137.639 221 139.652C221 141.824 219.418 143.787 217.247 143.89C215.294 143.986 213.336 143.885 211.404 143.586C209.322 143.268 207.951 141.114 208.151 138.932C208.329 137.01 210.172 135.329 212.218 135.234C212.661 135.224 213.107 135.241 213.707 135.241Z" fill="white"/>
<path d="M213.182 158.287C212.968 160.085 212.186 161.36 210.683 162.129C209.254 162.867 207.679 162.938 206.397 161.918C204.827 160.683 203.369 159.318 202.037 157.835C200.751 156.387 201.04 154.092 202.43 152.637C203.919 151.076 206.151 150.691 207.865 151.969C209.385 153.123 210.791 154.417 212.065 155.833C212.64 156.465 212.822 157.457 213.182 158.287Z" fill="white"/>
<path d="M197.723 110.122C197.416 111.319 197.073 113.283 196.398 115.126C195.684 117.079 193.316 118.033 191.305 117.446C189.163 116.821 187.945 114.84 188.359 112.467C188.622 110.951 188.979 109.454 189.431 107.982C189.73 106.976 190.403 106.118 191.313 105.58C192.224 105.042 193.306 104.863 194.345 105.079C196.387 105.45 197.759 107.191 197.723 110.122Z" fill="white"/>
<path d="M210.733 116.037C212.611 116.147 213.997 117.065 214.693 118.756C215.39 120.448 215.111 122.02 213.758 123.213C212.367 124.443 210.878 125.559 209.304 126.55C207.615 127.61 205.19 127.062 203.994 125.569C202.687 123.944 202.601 121.497 204.087 120.13C205.616 118.8 207.24 117.581 208.947 116.482C209.415 116.161 210.122 116.175 210.733 116.037Z" fill="white"/>
<path d="M149.986 127.027C151.661 135.033 145.94 143.028 137.683 144.282C133.262 144.956 129.323 143.978 125.898 141.103C126.135 140.795 126.411 140.519 126.72 140.281C128.045 139.493 129.427 138.797 130.737 137.992C131.77 137.36 132.73 136.618 133.723 135.926C137.873 136.279 139.748 135.146 141.605 131.215C143.465 130.265 145.322 129.305 147.19 128.365C148.108 127.913 149.051 127.476 149.986 127.027Z" fill="white"/>
<path d="M120.549 131.794C119.727 127.836 120.838 124.283 123.088 121.077C124.836 118.576 127.337 116.685 130.235 115.67C133.133 114.656 136.28 114.571 139.23 115.426C141.119 115.991 142.801 117.241 144.587 118.177C142.087 119.59 139.566 121.002 137.087 122.461C136.787 122.638 136.619 123.03 136.373 123.323C132.937 123.012 130.627 124.58 129.156 127.56C128.048 128.079 126.931 128.581 125.834 129.121C124.059 129.997 122.306 130.901 120.549 131.794Z" fill="white"/>
<path d="M136.362 123.33C136.591 123.037 136.759 122.645 137.077 122.468C139.576 121.02 142.076 119.608 144.576 118.184C147.626 120.388 149.329 123.393 149.99 127.013C149.054 127.461 148.112 127.899 147.183 128.365C145.315 129.305 143.458 130.265 141.598 131.215C141.598 130.262 141.741 129.273 141.544 128.358C140.951 125.6 139.019 124.078 136.362 123.33Z" fill="white"/>
<path d="M120.549 131.794C122.306 130.901 124.059 129.997 125.824 129.118C126.92 128.577 128.038 128.076 129.145 127.557C128.448 131.851 129.923 134.56 133.712 135.94C132.72 136.647 131.759 137.374 130.727 138.006C129.416 138.811 128.034 139.507 126.709 140.295C126.401 140.533 126.125 140.809 125.888 141.117C124.396 140.011 123.152 138.612 122.233 137.007C121.315 135.403 120.741 133.628 120.549 131.794Z" fill="white"/>
</g>
<defs>
<filter id="filter0_di_263_3829" x="0.998047" y="0" width="320.002" height="292.997" filterUnits="userSpaceOnUse" color-interpolation-filters="sRGB">
<feFlood flood-opacity="0" result="BackgroundImageFix"/>
<feColorMatrix in="SourceAlpha" type="matrix" values="0 0 0 0 0 0 0 0 0 0 0 0 0 0 0 0 0 0 127 0" result="hardAlpha"/>
<feOffset dy="4"/>
<feGaussianBlur stdDeviation="50"/>
<feComposite in2="hardAlpha" operator="out"/>
<feColorMatrix type="matrix" values="0 0 0 0 0 0 0 0 0 0 0 0 0 0 0 0 0 0 0.2 0"/>
<feBlend mode="normal" in2="BackgroundImageFix" result="effect1_dropShadow_263_3829"/>
<feBlend mode="normal" in="SourceGraphic" in2="effect1_dropShadow_263_3829" result="shape"/>
<feColorMatrix in="SourceAlpha" type="matrix" values="0 0 0 0 0 0 0 0 0 0 0 0 0 0 0 0 0 0 127 0" result="hardAlpha"/>
<feOffset dx="-18" dy="11"/>
<feGaussianBlur stdDeviation="15"/>
<feComposite in2="hardAlpha" operator="arithmetic" k2="-1" k3="1"/>
<feColorMatrix type="matrix" values="0 0 0 0 1 0 0 0 0 1 0 0 0 0 1 0 0 0 1 0"/>
<feBlend mode="normal" in2="shape" result="effect2_innerShadow_263_3829"/>
</filter>
</defs>
</svg>
