<svg width="435" height="446" viewBox="0 0 435 446" fill="none" xmlns="http://www.w3.org/2000/svg">
<g filter="url(#filter0_di_263_3831)">
<path d="M125.27 257.36C123.35 257.36 121.69 256.88 120.29 255.92C118.91 254.94 117.93 253.61 117.35 251.93L120.68 250.7C121.12 251.68 121.75 252.47 122.57 253.07C123.39 253.65 124.33 253.94 125.39 253.94C126.49 253.94 127.36 253.69 128 253.19C128.66 252.69 128.99 251.97 128.99 251.03C128.99 250.65 128.9 250.3 128.72 249.98C128.54 249.64 128.33 249.36 128.09 249.14C127.87 248.92 127.53 248.7 127.07 248.48C126.61 248.26 126.22 248.09 125.9 247.97C125.58 247.83 125.11 247.66 124.49 247.46C123.69 247.18 123.07 246.96 122.63 246.8C122.21 246.64 121.66 246.38 120.98 246.02C120.32 245.64 119.81 245.26 119.45 244.88C119.11 244.5 118.8 244 118.52 243.38C118.26 242.74 118.13 242.04 118.13 241.28C118.13 239.68 118.75 238.34 119.99 237.26C121.23 236.18 122.91 235.64 125.03 235.64C126.79 235.64 128.25 236.06 129.41 236.9C130.57 237.72 131.35 238.8 131.75 240.14L128.51 241.22C127.87 239.78 126.63 239.06 124.79 239.06C123.85 239.06 123.11 239.26 122.57 239.66C122.05 240.04 121.79 240.59 121.79 241.31C121.79 241.79 121.99 242.22 122.39 242.6C122.81 242.98 123.25 243.27 123.71 243.47C124.19 243.65 124.89 243.89 125.81 244.19C126.41 244.41 126.86 244.58 127.16 244.7C127.48 244.8 127.92 244.98 128.48 245.24C129.04 245.5 129.48 245.74 129.8 245.96C130.12 246.16 130.48 246.44 130.88 246.8C131.3 247.16 131.62 247.54 131.84 247.94C132.06 248.32 132.25 248.78 132.41 249.32C132.57 249.84 132.65 250.41 132.65 251.03C132.65 252.99 131.95 254.54 130.55 255.68C129.17 256.8 127.41 257.36 125.27 257.36ZM142.744 257.36C140.564 257.36 138.834 256.65 137.554 255.23C136.294 253.79 135.664 251.82 135.664 249.32C135.664 246.84 136.304 244.89 137.584 243.47C138.864 242.03 140.584 241.31 142.744 241.31C144.704 241.31 146.304 241.92 147.544 243.14C148.804 244.36 149.434 246.15 149.434 248.51C149.434 249.33 149.394 250.05 149.314 250.67H139.144C139.204 251.75 139.574 252.62 140.254 253.28C140.954 253.94 141.784 254.27 142.744 254.27C144.104 254.27 145.184 253.74 145.984 252.68L148.204 254.96C146.864 256.56 145.044 257.36 142.744 257.36ZM139.174 247.76H145.954C145.874 246.66 145.534 245.83 144.934 245.27C144.334 244.69 143.604 244.4 142.744 244.4C141.744 244.4 140.914 244.68 140.254 245.24C139.614 245.78 139.254 246.62 139.174 247.76ZM157.291 257.36C154.911 257.36 153.721 256.05 153.721 253.43V244.73H151.441V241.67H153.721V237.02L157.231 235.34V241.67H160.771V244.73H157.231V252.74C157.231 253.72 157.661 254.21 158.521 254.21C159.301 254.21 160.101 253.98 160.921 253.52L160.501 256.67C159.621 257.13 158.551 257.36 157.291 257.36ZM181.047 257V255.53C180.087 256.75 178.747 257.36 177.027 257.36C175.427 257.36 174.117 256.86 173.097 255.86C172.077 254.84 171.567 253.24 171.567 251.06V241.67H175.077V250.43C175.077 252.81 176.037 254 177.957 254C180.017 254 181.047 252.83 181.047 250.49V241.67H184.557V257H181.047ZM196.051 257.36C194.571 257.36 193.411 256.83 192.571 255.77V261.41L189.061 263.03V241.67H192.571V242.84C193.411 241.82 194.581 241.31 196.081 241.31C198.021 241.31 199.551 242.02 200.671 243.44C201.811 244.84 202.381 246.81 202.381 249.35C202.381 251.83 201.801 253.79 200.641 255.23C199.481 256.65 197.951 257.36 196.051 257.36ZM195.541 254C196.601 254 197.421 253.6 198.001 252.8C198.581 252 198.871 250.85 198.871 249.35C198.871 247.93 198.581 246.79 198.001 245.93C197.421 245.07 196.601 244.64 195.541 244.64C194.241 244.64 193.251 245.14 192.571 246.14V252.5C193.271 253.5 194.261 254 195.541 254ZM213.644 257V236.99L217.154 235.34V257H213.644ZM228.084 257.36C225.924 257.36 224.214 256.65 222.954 255.23C221.694 253.81 221.064 251.85 221.064 249.35C221.064 246.85 221.694 244.89 222.954 243.47C224.214 242.03 225.924 241.31 228.084 241.31C230.244 241.31 231.954 242.03 233.214 243.47C234.494 244.89 235.134 246.85 235.134 249.35C235.134 251.85 234.504 253.81 233.244 255.23C231.984 256.65 230.264 257.36 228.084 257.36ZM228.084 254C229.184 254 230.044 253.59 230.664 252.77C231.304 251.95 231.624 250.81 231.624 249.35C231.624 247.89 231.304 246.74 230.664 245.9C230.044 245.06 229.184 244.64 228.084 244.64C227.024 244.64 226.174 245.07 225.534 245.93C224.894 246.77 224.574 247.91 224.574 249.35C224.574 250.79 224.884 251.93 225.504 252.77C226.144 253.59 227.004 254 228.084 254ZM244.985 257.36C242.885 257.36 241.215 256.65 239.975 255.23C238.755 253.81 238.145 251.85 238.145 249.35C238.145 246.85 238.755 244.89 239.975 243.47C241.215 242.03 242.885 241.31 244.985 241.31C248.145 241.31 250.175 242.72 251.075 245.54L247.745 246.65C247.245 245.33 246.365 244.67 245.105 244.67C244.045 244.67 243.215 245.09 242.615 245.93C242.015 246.77 241.715 247.91 241.715 249.35C241.715 250.77 242.005 251.9 242.585 252.74C243.185 253.56 243.985 253.97 244.985 253.97C246.405 253.97 247.335 253.23 247.775 251.75L251.135 252.77C250.255 255.83 248.205 257.36 244.985 257.36ZM263.386 257V255.77C262.366 256.83 261.006 257.36 259.306 257.36C257.666 257.36 256.326 256.92 255.286 256.04C254.266 255.14 253.756 253.88 253.756 252.26C253.756 250.6 254.336 249.34 255.496 248.48C256.676 247.62 258.096 247.19 259.756 247.19C261.216 247.19 262.426 247.46 263.386 248V247.19C263.386 246.21 263.136 245.5 262.636 245.06C262.156 244.62 261.406 244.4 260.386 244.4C258.726 244.4 257.206 244.88 255.826 245.84L254.746 242.99C256.406 241.87 258.406 241.31 260.746 241.31C261.546 241.31 262.246 241.38 262.846 241.52C263.466 241.64 264.096 241.89 264.736 242.27C265.396 242.65 265.906 243.25 266.266 244.07C266.626 244.89 266.806 245.91 266.806 247.13V257H263.386ZM259.966 254.27C261.306 254.27 262.446 253.78 263.386 252.8V250.82C262.506 250.4 261.486 250.19 260.326 250.19C259.386 250.19 258.626 250.36 258.046 250.7C257.466 251.04 257.176 251.56 257.176 252.26C257.176 252.88 257.416 253.37 257.896 253.73C258.376 254.09 259.066 254.27 259.966 254.27ZM275.504 257.36C273.124 257.36 271.934 256.05 271.934 253.43V244.73H269.654V241.67H271.934V237.02L275.444 235.34V241.67H278.984V244.73H275.444V252.74C275.444 253.72 275.874 254.21 276.734 254.21C277.514 254.21 278.314 253.98 279.134 253.52L278.714 256.67C277.834 257.13 276.764 257.36 275.504 257.36ZM285.846 238.97C285.446 239.37 284.956 239.57 284.376 239.57C283.796 239.57 283.296 239.37 282.876 238.97C282.476 238.55 282.276 238.05 282.276 237.47C282.276 236.89 282.476 236.4 282.876 236C283.296 235.6 283.796 235.4 284.376 235.4C284.956 235.4 285.446 235.6 285.846 236C286.246 236.4 286.446 236.89 286.446 237.47C286.446 238.05 286.246 238.55 285.846 238.97ZM282.606 257V241.67H286.116V257H282.606ZM296.903 257.36C294.743 257.36 293.033 256.65 291.773 255.23C290.513 253.81 289.883 251.85 289.883 249.35C289.883 246.85 290.513 244.89 291.773 243.47C293.033 242.03 294.743 241.31 296.903 241.31C299.063 241.31 300.773 242.03 302.033 243.47C303.313 244.89 303.953 246.85 303.953 249.35C303.953 251.85 303.323 253.81 302.063 255.23C300.803 256.65 299.083 257.36 296.903 257.36ZM296.903 254C298.003 254 298.863 253.59 299.483 252.77C300.123 251.95 300.443 250.81 300.443 249.35C300.443 247.89 300.123 246.74 299.483 245.9C298.863 245.06 298.003 244.64 296.903 244.64C295.843 244.64 294.993 245.07 294.353 245.93C293.713 246.77 293.393 247.91 293.393 249.35C293.393 250.79 293.703 251.93 294.323 252.77C294.963 253.59 295.823 254 296.903 254ZM317.193 257V248.21C317.193 245.83 316.243 244.64 314.343 244.64C312.263 244.64 311.223 245.81 311.223 248.15V257H307.713V241.67H311.223V243.11C312.223 241.91 313.573 241.31 315.273 241.31C316.873 241.31 318.173 241.81 319.173 242.81C320.193 243.81 320.703 245.4 320.703 247.58V257H317.193Z" fill="white"/>
</g>
<path d="M59.3465 291.66V304H57.6065V291.66H53.7065V290H63.2465V291.66H59.3465ZM71.4874 302.82C70.6741 303.767 69.5741 304.24 68.1874 304.24C66.8008 304.24 65.7008 303.767 64.8874 302.82C64.0741 301.873 63.6674 300.567 63.6674 298.9C63.6674 297.233 64.0741 295.927 64.8874 294.98C65.7008 294.02 66.8008 293.54 68.1874 293.54C69.5741 293.54 70.6741 294.013 71.4874 294.96C72.3008 295.907 72.7074 297.213 72.7074 298.88C72.7074 300.547 72.3008 301.86 71.4874 302.82ZM66.1474 301.64C66.6408 302.293 67.3208 302.62 68.1874 302.62C69.0541 302.62 69.7274 302.293 70.2074 301.64C70.7008 300.973 70.9474 300.053 70.9474 298.88C70.9474 297.72 70.7008 296.807 70.2074 296.14C69.7274 295.473 69.0541 295.14 68.1874 295.14C67.3208 295.14 66.6408 295.473 66.1474 296.14C65.6674 296.793 65.4274 297.713 65.4274 298.9C65.4274 300.06 65.6674 300.973 66.1474 301.64ZM81.7868 291.62C81.5735 291.82 81.3135 291.92 81.0068 291.92C80.7001 291.92 80.4401 291.813 80.2268 291.6C80.0268 291.387 79.9268 291.133 79.9268 290.84C79.9268 290.533 80.0335 290.273 80.2468 290.06C80.4601 289.833 80.7135 289.72 81.0068 289.72C81.3135 289.72 81.5735 289.833 81.7868 290.06C82.0001 290.273 82.1068 290.533 82.1068 290.84C82.1068 291.147 82.0001 291.407 81.7868 291.62ZM80.1468 304V293.78H81.8868V304H80.1468ZM88.8249 304.24C87.5316 304.24 86.5049 303.76 85.7449 302.8C84.9849 301.84 84.6049 300.533 84.6049 298.88C84.6049 297.213 84.9849 295.907 85.7449 294.96C86.5183 294.013 87.5449 293.54 88.8249 293.54C89.8249 293.54 90.6849 293.86 91.4049 294.5V290.38L93.1449 289.56V304H91.4049V303.2C90.7383 303.893 89.8783 304.24 88.8249 304.24ZM89.0649 302.62C90.0783 302.62 90.8583 302.16 91.4049 301.24V296.44C90.8583 295.573 90.0783 295.14 89.0649 295.14C88.1983 295.14 87.5316 295.467 87.0649 296.12C86.5983 296.76 86.3649 297.68 86.3649 298.88C86.3649 299.96 86.6049 300.853 87.0849 301.56C87.5783 302.267 88.2383 302.62 89.0649 302.62ZM100.375 304.24C98.9887 304.24 97.8821 303.747 97.0554 302.76C96.2421 301.76 95.8354 300.467 95.8354 298.88C95.8354 297.213 96.2487 295.907 97.0754 294.96C97.9021 294.013 99.0021 293.54 100.375 293.54C101.602 293.54 102.609 293.953 103.395 294.78C104.195 295.593 104.595 296.8 104.595 298.4C104.595 298.773 104.575 299.16 104.535 299.56H97.6154C97.6821 300.493 97.9687 301.247 98.4754 301.82C98.9954 302.38 99.6421 302.66 100.415 302.66C101.269 302.66 102.002 302.353 102.615 301.74L103.675 302.92C102.795 303.8 101.695 304.24 100.375 304.24ZM97.5954 298.08H102.835C102.822 297.027 102.569 296.267 102.075 295.8C101.595 295.32 101.029 295.08 100.375 295.08C99.5887 295.08 98.9421 295.333 98.4354 295.84C97.9287 296.333 97.6487 297.08 97.5954 298.08ZM113.497 304V297.82C113.497 296.9 113.297 296.227 112.897 295.8C112.51 295.36 111.977 295.14 111.297 295.14C109.724 295.14 108.937 296.02 108.937 297.78V304H107.197V293.78H108.937V294.82C109.564 293.967 110.444 293.54 111.577 293.54C112.777 293.54 113.684 293.907 114.297 294.64C114.924 295.36 115.237 296.52 115.237 298.12V304H113.497ZM121.227 304.24C119.787 304.24 119.067 303.427 119.067 301.8V295.3H117.407V293.78H119.067V290.4L120.807 289.56V293.78H123.327V295.3H120.807V301.22C120.807 301.673 120.88 302.02 121.027 302.26C121.173 302.5 121.453 302.62 121.867 302.62C122.32 302.62 122.827 302.44 123.387 302.08L123.187 303.78C122.6 304.087 121.947 304.24 121.227 304.24ZM127.607 291.62C127.394 291.82 127.134 291.92 126.827 291.92C126.52 291.92 126.26 291.813 126.047 291.6C125.847 291.387 125.747 291.133 125.747 290.84C125.747 290.533 125.854 290.273 126.067 290.06C126.28 289.833 126.534 289.72 126.827 289.72C127.134 289.72 127.394 289.833 127.607 290.06C127.82 290.273 127.927 290.533 127.927 290.84C127.927 291.147 127.82 291.407 127.607 291.62ZM125.967 304V293.78H127.707V304H125.967ZM133.345 295.3V304H131.605V295.3H130.025V293.78H131.605V292.08C131.605 291.253 131.819 290.66 132.245 290.3C132.672 289.94 133.199 289.76 133.825 289.76C134.492 289.76 135.125 289.92 135.725 290.24V291.7C135.179 291.447 134.692 291.32 134.265 291.32C133.892 291.32 133.645 291.413 133.525 291.6C133.405 291.787 133.345 292.047 133.345 292.38V293.78H135.725V295.3H133.345ZM138.905 307.88L140.465 303.74L136.685 293.78H138.425L140.965 300.74C141.059 300.967 141.165 301.293 141.285 301.72C141.405 301.293 141.512 300.967 141.605 300.74L144.185 293.78H145.965L140.665 307.88H138.905ZM154.218 307.88L155.778 303.74L151.998 293.78H153.738L156.278 300.74C156.371 300.967 156.478 301.293 156.598 301.72C156.718 301.293 156.825 300.967 156.918 300.74L159.498 293.78H161.278L155.978 307.88H154.218ZM170.823 302.82C170.01 303.767 168.91 304.24 167.523 304.24C166.137 304.24 165.037 303.767 164.223 302.82C163.41 301.873 163.003 300.567 163.003 298.9C163.003 297.233 163.41 295.927 164.223 294.98C165.037 294.02 166.137 293.54 167.523 293.54C168.91 293.54 170.01 294.013 170.823 294.96C171.637 295.907 172.043 297.213 172.043 298.88C172.043 300.547 171.637 301.86 170.823 302.82ZM165.483 301.64C165.977 302.293 166.657 302.62 167.523 302.62C168.39 302.62 169.063 302.293 169.543 301.64C170.037 300.973 170.283 300.053 170.283 298.88C170.283 297.72 170.037 296.807 169.543 296.14C169.063 295.473 168.39 295.14 167.523 295.14C166.657 295.14 165.977 295.473 165.483 296.14C165.003 296.793 164.763 297.713 164.763 298.9C164.763 300.06 165.003 300.973 165.483 301.64ZM180.956 304V303.02C180.329 303.833 179.469 304.24 178.376 304.24C177.136 304.24 176.202 303.88 175.576 303.16C174.962 302.44 174.656 301.28 174.656 299.68V293.78H176.396V299.94C176.396 300.86 176.589 301.54 176.976 301.98C177.376 302.407 177.916 302.62 178.596 302.62C180.169 302.62 180.956 301.74 180.956 299.98V293.78H182.696V304H180.956ZM186.025 304V293.78H187.765V295.12C188.245 294.067 189.052 293.54 190.185 293.54C190.825 293.54 191.352 293.713 191.765 294.06L191.505 295.7C191.079 295.407 190.592 295.26 190.045 295.26C189.445 295.26 188.912 295.493 188.445 295.96C187.992 296.427 187.765 297.187 187.765 298.24V304H186.025ZM198.606 304V290.38L200.346 289.56V304H198.606ZM210.96 302.82C210.147 303.767 209.047 304.24 207.66 304.24C206.273 304.24 205.173 303.767 204.36 302.82C203.547 301.873 203.14 300.567 203.14 298.9C203.14 297.233 203.547 295.927 204.36 294.98C205.173 294.02 206.273 293.54 207.66 293.54C209.047 293.54 210.147 294.013 210.96 294.96C211.773 295.907 212.18 297.213 212.18 298.88C212.18 300.547 211.773 301.86 210.96 302.82ZM205.62 301.64C206.113 302.293 206.793 302.62 207.66 302.62C208.527 302.62 209.2 302.293 209.68 301.64C210.173 300.973 210.42 300.053 210.42 298.88C210.42 297.72 210.173 296.807 209.68 296.14C209.2 295.473 208.527 295.14 207.66 295.14C206.793 295.14 206.113 295.473 205.62 296.14C205.14 296.793 204.9 297.713 204.9 298.9C204.9 300.06 205.14 300.973 205.62 301.64ZM218.532 304.24C217.226 304.24 216.192 303.773 215.432 302.84C214.672 301.893 214.292 300.58 214.292 298.9C214.292 297.22 214.672 295.907 215.432 294.96C216.206 294.013 217.266 293.54 218.612 293.54C220.426 293.54 221.619 294.333 222.192 295.92L220.552 296.52C220.206 295.613 219.566 295.16 218.632 295.16C217.779 295.16 217.139 295.487 216.712 296.14C216.286 296.793 216.072 297.713 216.072 298.9C216.072 300.073 216.286 300.987 216.712 301.64C217.139 302.28 217.759 302.6 218.572 302.6C219.639 302.6 220.332 302.093 220.652 301.08L222.272 301.62C222.019 302.46 221.566 303.107 220.912 303.56C220.272 304.013 219.479 304.24 218.532 304.24ZM230.557 304V303.06C229.717 303.847 228.75 304.24 227.657 304.24C226.577 304.24 225.71 303.947 225.057 303.36C224.417 302.76 224.097 301.907 224.097 300.8C224.097 299.693 224.464 298.853 225.197 298.28C225.93 297.707 226.837 297.42 227.917 297.42C228.904 297.42 229.784 297.64 230.557 298.08V297.36C230.557 296.507 230.364 295.913 229.977 295.58C229.604 295.233 229.057 295.06 228.337 295.06C227.31 295.06 226.317 295.4 225.357 296.08L224.857 294.62C225.95 293.9 227.184 293.54 228.557 293.54C230.984 293.54 232.197 294.767 232.197 297.22V304H230.557ZM227.917 302.7C228.917 302.7 229.797 302.253 230.557 301.36V299.6C229.824 299.147 229.024 298.92 228.157 298.92C227.45 298.92 226.87 299.08 226.417 299.4C225.964 299.72 225.737 300.187 225.737 300.8C225.737 301.373 225.924 301.833 226.297 302.18C226.684 302.527 227.224 302.7 227.917 302.7ZM237.984 304.24C236.544 304.24 235.824 303.427 235.824 301.8V295.3H234.164V293.78H235.824V290.4L237.564 289.56V293.78H240.084V295.3H237.564V301.22C237.564 301.673 237.638 302.02 237.784 302.26C237.931 302.5 238.211 302.62 238.624 302.62C239.078 302.62 239.584 302.44 240.144 302.08L239.944 303.78C239.358 304.087 238.704 304.24 237.984 304.24ZM244.365 291.62C244.152 291.82 243.892 291.92 243.585 291.92C243.278 291.92 243.018 291.813 242.805 291.6C242.605 291.387 242.505 291.133 242.505 290.84C242.505 290.533 242.612 290.273 242.825 290.06C243.038 289.833 243.292 289.72 243.585 289.72C243.892 289.72 244.152 289.833 244.365 290.06C244.578 290.273 244.685 290.533 244.685 290.84C244.685 291.147 244.578 291.407 244.365 291.62ZM242.725 304V293.78H244.465V304H242.725ZM255.003 302.82C254.19 303.767 253.09 304.24 251.703 304.24C250.316 304.24 249.216 303.767 248.403 302.82C247.59 301.873 247.183 300.567 247.183 298.9C247.183 297.233 247.59 295.927 248.403 294.98C249.216 294.02 250.316 293.54 251.703 293.54C253.09 293.54 254.19 294.013 255.003 294.96C255.816 295.907 256.223 297.213 256.223 298.88C256.223 300.547 255.816 301.86 255.003 302.82ZM249.663 301.64C250.156 302.293 250.836 302.62 251.703 302.62C252.57 302.62 253.243 302.293 253.723 301.64C254.216 300.973 254.463 300.053 254.463 298.88C254.463 297.72 254.216 296.807 253.723 296.14C253.243 295.473 252.57 295.14 251.703 295.14C250.836 295.14 250.156 295.473 249.663 296.14C249.183 296.793 248.943 297.713 248.943 298.9C248.943 300.06 249.183 300.973 249.663 301.64ZM265.235 304V297.82C265.235 296.9 265.035 296.227 264.635 295.8C264.249 295.36 263.715 295.14 263.035 295.14C261.462 295.14 260.675 296.02 260.675 297.78V304H258.935V293.78H260.675V294.82C261.302 293.967 262.182 293.54 263.315 293.54C264.515 293.54 265.422 293.907 266.035 294.64C266.662 295.36 266.975 296.52 266.975 298.12V304H265.235ZM279.272 304.24C278.205 304.24 277.332 303.84 276.652 303.04V307.22L274.912 308.04V293.78H276.652V294.64C277.385 293.907 278.259 293.54 279.272 293.54C280.565 293.54 281.592 294.02 282.352 294.98C283.112 295.94 283.492 297.24 283.492 298.88C283.492 300.547 283.105 301.86 282.332 302.82C281.559 303.767 280.539 304.24 279.272 304.24ZM279.052 302.62C279.905 302.62 280.559 302.3 281.012 301.66C281.479 301.007 281.712 300.08 281.712 298.88C281.712 297.747 281.472 296.84 280.992 296.16C280.525 295.48 279.879 295.14 279.052 295.14C277.972 295.14 277.172 295.6 276.652 296.52V301.24C277.359 302.16 278.159 302.62 279.052 302.62ZM286.301 304V290.38L288.041 289.56V304H286.301ZM295.375 304.24C293.989 304.24 292.882 303.747 292.055 302.76C291.242 301.76 290.835 300.467 290.835 298.88C290.835 297.213 291.249 295.907 292.075 294.96C292.902 294.013 294.002 293.54 295.375 293.54C296.602 293.54 297.609 293.953 298.395 294.78C299.195 295.593 299.595 296.8 299.595 298.4C299.595 298.773 299.575 299.16 299.535 299.56H292.615C292.682 300.493 292.969 301.247 293.475 301.82C293.995 302.38 294.642 302.66 295.415 302.66C296.269 302.66 297.002 302.353 297.615 301.74L298.675 302.92C297.795 303.8 296.695 304.24 295.375 304.24ZM292.595 298.08H297.835C297.822 297.027 297.569 296.267 297.075 295.8C296.595 295.32 296.029 295.08 295.375 295.08C294.589 295.08 293.942 295.333 293.435 295.84C292.929 296.333 292.649 297.08 292.595 298.08ZM308.057 304V303.06C307.217 303.847 306.25 304.24 305.157 304.24C304.077 304.24 303.21 303.947 302.557 303.36C301.917 302.76 301.597 301.907 301.597 300.8C301.597 299.693 301.964 298.853 302.697 298.28C303.43 297.707 304.337 297.42 305.417 297.42C306.404 297.42 307.284 297.64 308.057 298.08V297.36C308.057 296.507 307.864 295.913 307.477 295.58C307.104 295.233 306.557 295.06 305.837 295.06C304.81 295.06 303.817 295.4 302.857 296.08L302.357 294.62C303.45 293.9 304.684 293.54 306.057 293.54C308.484 293.54 309.697 294.767 309.697 297.22V304H308.057ZM305.417 302.7C306.417 302.7 307.297 302.253 308.057 301.36V299.6C307.324 299.147 306.524 298.92 305.657 298.92C304.95 298.92 304.37 299.08 303.917 299.4C303.464 299.72 303.237 300.187 303.237 300.8C303.237 301.373 303.424 301.833 303.797 302.18C304.184 302.527 304.724 302.7 305.417 302.7ZM315.744 304.24C315.011 304.24 314.311 304.087 313.644 303.78C312.991 303.46 312.458 303.04 312.044 302.52L313.284 301.46C314.044 302.273 314.878 302.68 315.784 302.68C316.358 302.68 316.818 302.573 317.164 302.36C317.511 302.133 317.684 301.807 317.684 301.38C317.684 301.06 317.558 300.773 317.304 300.52C317.051 300.253 316.791 300.06 316.524 299.94C316.258 299.807 315.864 299.64 315.344 299.44C314.304 299.053 313.518 298.62 312.984 298.14C312.451 297.66 312.184 297.027 312.184 296.24C312.184 295.413 312.504 294.76 313.144 294.28C313.798 293.787 314.624 293.54 315.624 293.54C317.051 293.54 318.198 294.053 319.064 295.08L317.864 296.08C317.238 295.427 316.484 295.1 315.604 295.1C315.084 295.1 314.671 295.2 314.364 295.4C314.058 295.6 313.904 295.88 313.904 296.24C313.904 296.44 313.951 296.627 314.044 296.8C314.151 296.96 314.331 297.113 314.584 297.26C314.851 297.407 315.058 297.52 315.204 297.6C315.364 297.667 315.651 297.78 316.064 297.94C317.144 298.327 317.964 298.767 318.524 299.26C319.098 299.753 319.384 300.447 319.384 301.34C319.384 302.247 319.058 302.96 318.404 303.48C317.751 303.987 316.864 304.24 315.744 304.24ZM326.039 304.24C324.653 304.24 323.546 303.747 322.719 302.76C321.906 301.76 321.499 300.467 321.499 298.88C321.499 297.213 321.913 295.907 322.739 294.96C323.566 294.013 324.666 293.54 326.039 293.54C327.266 293.54 328.273 293.953 329.059 294.78C329.859 295.593 330.259 296.8 330.259 298.4C330.259 298.773 330.239 299.16 330.199 299.56H323.279C323.346 300.493 323.633 301.247 324.139 301.82C324.659 302.38 325.306 302.66 326.079 302.66C326.933 302.66 327.666 302.353 328.279 301.74L329.339 302.92C328.459 303.8 327.359 304.24 326.039 304.24ZM323.259 298.08H328.499C328.486 297.027 328.233 296.267 327.739 295.8C327.259 295.32 326.693 295.08 326.039 295.08C325.253 295.08 324.606 295.333 324.099 295.84C323.593 296.333 323.313 297.08 323.259 298.08ZM343.428 304V303.06C342.588 303.847 341.622 304.24 340.528 304.24C339.448 304.24 338.582 303.947 337.928 303.36C337.288 302.76 336.968 301.907 336.968 300.8C336.968 299.693 337.335 298.853 338.068 298.28C338.802 297.707 339.708 297.42 340.788 297.42C341.775 297.42 342.655 297.64 343.428 298.08V297.36C343.428 296.507 343.235 295.913 342.848 295.58C342.475 295.233 341.928 295.06 341.208 295.06C340.182 295.06 339.188 295.4 338.228 296.08L337.728 294.62C338.822 293.9 340.055 293.54 341.428 293.54C343.855 293.54 345.068 294.767 345.068 297.22V304H343.428ZM340.788 302.7C341.788 302.7 342.668 302.253 343.428 301.36V299.6C342.695 299.147 341.895 298.92 341.028 298.92C340.322 298.92 339.742 299.08 339.288 299.4C338.835 299.72 338.608 300.187 338.608 300.8C338.608 301.373 338.795 301.833 339.168 302.18C339.555 302.527 340.095 302.7 340.788 302.7ZM348.196 304V290.38L349.936 289.56V304H348.196ZM353.43 304V290.38L355.17 289.56V304H353.43ZM365.784 302.82C364.971 303.767 363.871 304.24 362.484 304.24C361.098 304.24 359.998 303.767 359.184 302.82C358.371 301.873 357.964 300.567 357.964 298.9C357.964 297.233 358.371 295.927 359.184 294.98C359.998 294.02 361.098 293.54 362.484 293.54C363.871 293.54 364.971 294.013 365.784 294.96C366.598 295.907 367.004 297.213 367.004 298.88C367.004 300.547 366.598 301.86 365.784 302.82ZM360.444 301.64C360.938 302.293 361.618 302.62 362.484 302.62C363.351 302.62 364.024 302.293 364.504 301.64C364.998 300.973 365.244 300.053 365.244 298.88C365.244 297.72 364.998 296.807 364.504 296.14C364.024 295.473 363.351 295.14 362.484 295.14C361.618 295.14 360.938 295.473 360.444 296.14C359.964 296.793 359.724 297.713 359.724 298.9C359.724 300.06 359.964 300.973 360.444 301.64ZM371.437 304L368.817 293.78H370.537L372.097 300.64C372.11 300.72 372.143 300.887 372.197 301.14C372.25 301.393 372.29 301.587 372.317 301.72C372.343 301.533 372.43 301.173 372.577 300.64L374.497 293.78H375.937L377.857 300.64L378.137 301.76C378.163 301.64 378.197 301.453 378.237 301.2C378.29 300.947 378.33 300.76 378.357 300.64L379.897 293.78H381.617L378.997 304H377.437L375.577 297.94C375.39 297.34 375.263 296.893 375.197 296.6C375.063 297.16 374.943 297.607 374.837 297.94L372.997 304H371.437ZM65.2955 335L62.4355 321H64.2555L65.9755 330.12C66.0955 330.72 66.1822 331.22 66.2355 331.62C66.2355 331.607 66.3622 331.113 66.6155 330.14L69.0955 321H70.4755L72.9755 330.12C73.1355 330.72 73.2422 331.173 73.2955 331.48C73.3489 331.133 73.4355 330.673 73.5555 330.1L75.4555 321H77.2355L74.1955 335H72.8155L70.1155 325.44C69.9155 324.707 69.7955 324.247 69.7555 324.06C69.6889 324.42 69.5755 324.88 69.4155 325.44L66.7155 335H65.2955ZM83.8324 335.24C82.4458 335.24 81.3391 334.747 80.5124 333.76C79.6991 332.76 79.2924 331.467 79.2924 329.88C79.2924 328.213 79.7058 326.907 80.5324 325.96C81.3591 325.013 82.4591 324.54 83.8324 324.54C85.0591 324.54 86.0658 324.953 86.8524 325.78C87.6524 326.593 88.0524 327.8 88.0524 329.4C88.0524 329.773 88.0324 330.16 87.9924 330.56H81.0724C81.1391 331.493 81.4258 332.247 81.9324 332.82C82.4524 333.38 83.0991 333.66 83.8724 333.66C84.7258 333.66 85.4591 333.353 86.0724 332.74L87.1324 333.92C86.2524 334.8 85.1524 335.24 83.8324 335.24ZM81.0524 329.08H86.2924C86.2791 328.027 86.0258 327.267 85.5324 326.8C85.0524 326.32 84.4858 326.08 83.8324 326.08C83.0458 326.08 82.3991 326.333 81.8924 326.84C81.3858 327.333 81.1058 328.08 81.0524 329.08ZM96.5141 335V334.06C95.6741 334.847 94.7075 335.24 93.6141 335.24C92.5341 335.24 91.6675 334.947 91.0141 334.36C90.3741 333.76 90.0541 332.907 90.0541 331.8C90.0541 330.693 90.4208 329.853 91.1541 329.28C91.8875 328.707 92.7941 328.42 93.8741 328.42C94.8608 328.42 95.7408 328.64 96.5141 329.08V328.36C96.5141 327.507 96.3208 326.913 95.9341 326.58C95.5608 326.233 95.0141 326.06 94.2941 326.06C93.2675 326.06 92.2741 326.4 91.3141 327.08L90.8141 325.62C91.9075 324.9 93.1408 324.54 94.5141 324.54C96.9408 324.54 98.1541 325.767 98.1541 328.22V335H96.5141ZM93.8741 333.7C94.8741 333.7 95.7541 333.253 96.5141 332.36V330.6C95.7808 330.147 94.9808 329.92 94.1141 329.92C93.4075 329.92 92.8275 330.08 92.3741 330.4C91.9208 330.72 91.6941 331.187 91.6941 331.8C91.6941 332.373 91.8808 332.833 92.2541 333.18C92.6408 333.527 93.1808 333.7 93.8741 333.7ZM103.941 335.24C102.501 335.24 101.781 334.427 101.781 332.8V326.3H100.121V324.78H101.781V321.4L103.521 320.56V324.78H106.041V326.3H103.521V332.22C103.521 332.673 103.595 333.02 103.741 333.26C103.888 333.5 104.168 333.62 104.581 333.62C105.035 333.62 105.541 333.44 106.101 333.08L105.901 334.78C105.315 335.087 104.661 335.24 103.941 335.24ZM108.662 335V321.36L110.402 320.56V325.84C111.029 324.973 111.909 324.54 113.042 324.54C114.242 324.54 115.149 324.907 115.762 325.64C116.389 326.36 116.702 327.52 116.702 329.12V335H114.962V328.82C114.962 327.9 114.762 327.227 114.362 326.8C113.975 326.36 113.442 326.14 112.762 326.14C111.189 326.14 110.402 327.02 110.402 328.78V335H108.662ZM123.871 335.24C122.485 335.24 121.378 334.747 120.551 333.76C119.738 332.76 119.331 331.467 119.331 329.88C119.331 328.213 119.745 326.907 120.571 325.96C121.398 325.013 122.498 324.54 123.871 324.54C125.098 324.54 126.105 324.953 126.891 325.78C127.691 326.593 128.091 327.8 128.091 329.4C128.091 329.773 128.071 330.16 128.031 330.56H121.111C121.178 331.493 121.465 332.247 121.971 332.82C122.491 333.38 123.138 333.66 123.911 333.66C124.765 333.66 125.498 333.353 126.111 332.74L127.171 333.92C126.291 334.8 125.191 335.24 123.871 335.24ZM121.091 329.08H126.331C126.318 328.027 126.065 327.267 125.571 326.8C125.091 326.32 124.525 326.08 123.871 326.08C123.085 326.08 122.438 326.333 121.931 326.84C121.425 327.333 121.145 328.08 121.091 329.08ZM130.693 335V324.78H132.433V326.12C132.913 325.067 133.72 324.54 134.853 324.54C135.493 324.54 136.02 324.713 136.433 325.06L136.173 326.7C135.747 326.407 135.26 326.26 134.713 326.26C134.113 326.26 133.58 326.493 133.113 326.96C132.66 327.427 132.433 328.187 132.433 329.24V335H130.693ZM146.591 335L145.391 331.58H139.831L138.651 335H136.831L141.791 321H143.411L148.371 335H146.591ZM144.851 330.04L143.051 324.86C142.824 324.207 142.677 323.733 142.611 323.44C142.464 323.96 142.317 324.433 142.171 324.86L140.351 330.04H144.851ZM155.405 335.24C154.338 335.24 153.465 334.84 152.785 334.04V338.22L151.045 339.04V324.78H152.785V325.64C153.518 324.907 154.391 324.54 155.405 324.54C156.698 324.54 157.725 325.02 158.485 325.98C159.245 326.94 159.625 328.24 159.625 329.88C159.625 331.547 159.238 332.86 158.465 333.82C157.691 334.767 156.671 335.24 155.405 335.24ZM155.185 333.62C156.038 333.62 156.691 333.3 157.145 332.66C157.611 332.007 157.845 331.08 157.845 329.88C157.845 328.747 157.605 327.84 157.125 327.16C156.658 326.48 156.011 326.14 155.185 326.14C154.105 326.14 153.305 326.6 152.785 327.52V332.24C153.491 333.16 154.291 333.62 155.185 333.62ZM166.694 335.24C165.627 335.24 164.754 334.84 164.074 334.04V338.22L162.334 339.04V324.78H164.074V325.64C164.807 324.907 165.68 324.54 166.694 324.54C167.987 324.54 169.014 325.02 169.774 325.98C170.534 326.94 170.914 328.24 170.914 329.88C170.914 331.547 170.527 332.86 169.754 333.82C168.98 334.767 167.96 335.24 166.694 335.24ZM166.474 333.62C167.327 333.62 167.98 333.3 168.434 332.66C168.9 332.007 169.134 331.08 169.134 329.88C169.134 328.747 168.894 327.84 168.414 327.16C167.947 326.48 167.3 326.14 166.474 326.14C165.394 326.14 164.594 326.6 164.074 327.52V332.24C164.78 333.16 165.58 333.62 166.474 333.62ZM181.09 335.24C179.65 335.24 178.93 334.427 178.93 332.8V326.3H177.27V324.78H178.93V321.4L180.67 320.56V324.78H183.19V326.3H180.67V332.22C180.67 332.673 180.743 333.02 180.89 333.26C181.037 333.5 181.317 333.62 181.73 333.62C182.183 333.62 182.69 333.44 183.25 333.08L183.05 334.78C182.463 335.087 181.81 335.24 181.09 335.24ZM192.835 333.82C192.022 334.767 190.922 335.24 189.535 335.24C188.148 335.24 187.048 334.767 186.235 333.82C185.422 332.873 185.015 331.567 185.015 329.9C185.015 328.233 185.422 326.927 186.235 325.98C187.048 325.02 188.148 324.54 189.535 324.54C190.922 324.54 192.022 325.013 192.835 325.96C193.648 326.907 194.055 328.213 194.055 329.88C194.055 331.547 193.648 332.86 192.835 333.82ZM187.495 332.64C187.988 333.293 188.668 333.62 189.535 333.62C190.402 333.62 191.075 333.293 191.555 332.64C192.048 331.973 192.295 331.053 192.295 329.88C192.295 328.72 192.048 327.807 191.555 327.14C191.075 326.473 190.402 326.14 189.535 326.14C188.668 326.14 187.988 326.473 187.495 327.14C187.015 327.793 186.775 328.713 186.775 329.9C186.775 331.06 187.015 331.973 187.495 332.64ZM209.774 335H207.874L204.714 328.82L203.214 330.38V335H201.474V321.38L203.214 320.56V328.3L206.534 324.78H208.614L205.934 327.56L209.774 335ZM218.399 335V328.82C218.399 327.9 218.199 327.227 217.799 326.8C217.413 326.36 216.879 326.14 216.199 326.14C214.626 326.14 213.839 327.02 213.839 328.78V335H212.099V324.78H213.839V325.82C214.466 324.967 215.346 324.54 216.479 324.54C217.679 324.54 218.586 324.907 219.199 325.64C219.826 326.36 220.139 327.52 220.139 329.12V335H218.399ZM230.589 333.82C229.776 334.767 228.676 335.24 227.289 335.24C225.902 335.24 224.802 334.767 223.989 333.82C223.176 332.873 222.769 331.567 222.769 329.9C222.769 328.233 223.176 326.927 223.989 325.98C224.802 325.02 225.902 324.54 227.289 324.54C228.676 324.54 229.776 325.013 230.589 325.96C231.402 326.907 231.809 328.213 231.809 329.88C231.809 331.547 231.402 332.86 230.589 333.82ZM225.249 332.64C225.742 333.293 226.422 333.62 227.289 333.62C228.156 333.62 228.829 333.293 229.309 332.64C229.802 331.973 230.049 331.053 230.049 329.88C230.049 328.72 229.802 327.807 229.309 327.14C228.829 326.473 228.156 326.14 227.289 326.14C226.422 326.14 225.742 326.473 225.249 327.14C224.769 327.793 224.529 328.713 224.529 329.9C224.529 331.06 224.769 331.973 225.249 332.64ZM236.241 335L233.621 324.78H235.341L236.901 331.64C236.915 331.72 236.948 331.887 237.001 332.14C237.055 332.393 237.095 332.587 237.121 332.72C237.148 332.533 237.235 332.173 237.381 331.64L239.301 324.78H240.741L242.661 331.64L242.941 332.76C242.968 332.64 243.001 332.453 243.041 332.2C243.095 331.947 243.135 331.76 243.161 331.64L244.701 324.78H246.421L243.801 335H242.241L240.381 328.94C240.195 328.34 240.068 327.893 240.001 327.6C239.868 328.16 239.748 328.607 239.641 328.94L237.801 335H236.241ZM254.745 338.88L256.305 334.74L252.525 324.78H254.265L256.805 331.74C256.899 331.967 257.005 332.293 257.125 332.72C257.245 332.293 257.352 331.967 257.445 331.74L260.025 324.78H261.805L256.505 338.88H254.745ZM271.351 333.82C270.537 334.767 269.437 335.24 268.051 335.24C266.664 335.24 265.564 334.767 264.751 333.82C263.937 332.873 263.531 331.567 263.531 329.9C263.531 328.233 263.937 326.927 264.751 325.98C265.564 325.02 266.664 324.54 268.051 324.54C269.437 324.54 270.537 325.013 271.351 325.96C272.164 326.907 272.571 328.213 272.571 329.88C272.571 331.547 272.164 332.86 271.351 333.82ZM266.011 332.64C266.504 333.293 267.184 333.62 268.051 333.62C268.917 333.62 269.591 333.293 270.071 332.64C270.564 331.973 270.811 331.053 270.811 329.88C270.811 328.72 270.564 327.807 270.071 327.14C269.591 326.473 268.917 326.14 268.051 326.14C267.184 326.14 266.504 326.473 266.011 327.14C265.531 327.793 265.291 328.713 265.291 329.9C265.291 331.06 265.531 331.973 266.011 332.64ZM281.483 335V334.02C280.856 334.833 279.996 335.24 278.903 335.24C277.663 335.24 276.73 334.88 276.103 334.16C275.49 333.44 275.183 332.28 275.183 330.68V324.78H276.923V330.94C276.923 331.86 277.116 332.54 277.503 332.98C277.903 333.407 278.443 333.62 279.123 333.62C280.696 333.62 281.483 332.74 281.483 330.98V324.78H283.223V335H281.483ZM286.553 335V324.78H288.293V326.12C288.773 325.067 289.579 324.54 290.713 324.54C291.353 324.54 291.879 324.713 292.293 325.06L292.033 326.7C291.606 326.407 291.119 326.26 290.573 326.26C289.973 326.26 289.439 326.493 288.973 326.96C288.519 327.427 288.293 328.187 288.293 329.24V335H286.553ZM299.133 335V321.38L300.873 320.56V335H299.133ZM311.487 333.82C310.674 334.767 309.574 335.24 308.187 335.24C306.801 335.24 305.701 334.767 304.887 333.82C304.074 332.873 303.667 331.567 303.667 329.9C303.667 328.233 304.074 326.927 304.887 325.98C305.701 325.02 306.801 324.54 308.187 324.54C309.574 324.54 310.674 325.013 311.487 325.96C312.301 326.907 312.707 328.213 312.707 329.88C312.707 331.547 312.301 332.86 311.487 333.82ZM306.147 332.64C306.641 333.293 307.321 333.62 308.187 333.62C309.054 333.62 309.727 333.293 310.207 332.64C310.701 331.973 310.947 331.053 310.947 329.88C310.947 328.72 310.701 327.807 310.207 327.14C309.727 326.473 309.054 326.14 308.187 326.14C307.321 326.14 306.641 326.473 306.147 327.14C305.667 327.793 305.427 328.713 305.427 329.9C305.427 331.06 305.667 331.973 306.147 332.64ZM319.06 335.24C317.753 335.24 316.72 334.773 315.96 333.84C315.2 332.893 314.82 331.58 314.82 329.9C314.82 328.22 315.2 326.907 315.96 325.96C316.733 325.013 317.793 324.54 319.14 324.54C320.953 324.54 322.146 325.333 322.72 326.92L321.08 327.52C320.733 326.613 320.093 326.16 319.16 326.16C318.306 326.16 317.666 326.487 317.24 327.14C316.813 327.793 316.6 328.713 316.6 329.9C316.6 331.073 316.813 331.987 317.24 332.64C317.666 333.28 318.286 333.6 319.1 333.6C320.166 333.6 320.86 333.093 321.18 332.08L322.8 332.62C322.546 333.46 322.093 334.107 321.44 334.56C320.8 335.013 320.006 335.24 319.06 335.24ZM331.084 335V334.06C330.244 334.847 329.278 335.24 328.184 335.24C327.104 335.24 326.238 334.947 325.584 334.36C324.944 333.76 324.624 332.907 324.624 331.8C324.624 330.693 324.991 329.853 325.724 329.28C326.458 328.707 327.364 328.42 328.444 328.42C329.431 328.42 330.311 328.64 331.084 329.08V328.36C331.084 327.507 330.891 326.913 330.504 326.58C330.131 326.233 329.584 326.06 328.864 326.06C327.838 326.06 326.844 326.4 325.884 327.08L325.384 325.62C326.478 324.9 327.711 324.54 329.084 324.54C331.511 324.54 332.724 325.767 332.724 328.22V335H331.084ZM328.444 333.7C329.444 333.7 330.324 333.253 331.084 332.36V330.6C330.351 330.147 329.551 329.92 328.684 329.92C327.978 329.92 327.398 330.08 326.944 330.4C326.491 330.72 326.264 331.187 326.264 331.8C326.264 332.373 326.451 332.833 326.824 333.18C327.211 333.527 327.751 333.7 328.444 333.7ZM338.512 335.24C337.072 335.24 336.352 334.427 336.352 332.8V326.3H334.692V324.78H336.352V321.4L338.092 320.56V324.78H340.612V326.3H338.092V332.22C338.092 332.673 338.165 333.02 338.312 333.26C338.458 333.5 338.738 333.62 339.152 333.62C339.605 333.62 340.112 333.44 340.672 333.08L340.472 334.78C339.885 335.087 339.232 335.24 338.512 335.24ZM344.892 322.62C344.679 322.82 344.419 322.92 344.112 322.92C343.806 322.92 343.546 322.813 343.332 322.6C343.132 322.387 343.032 322.133 343.032 321.84C343.032 321.533 343.139 321.273 343.352 321.06C343.566 320.833 343.819 320.72 344.112 320.72C344.419 320.72 344.679 320.833 344.892 321.06C345.106 321.273 345.212 321.533 345.212 321.84C345.212 322.147 345.106 322.407 344.892 322.62ZM343.252 335V324.78H344.992V335H343.252ZM355.53 333.82C354.717 334.767 353.617 335.24 352.23 335.24C350.844 335.24 349.744 334.767 348.93 333.82C348.117 332.873 347.71 331.567 347.71 329.9C347.71 328.233 348.117 326.927 348.93 325.98C349.744 325.02 350.844 324.54 352.23 324.54C353.617 324.54 354.717 325.013 355.53 325.96C356.344 326.907 356.75 328.213 356.75 329.88C356.75 331.547 356.344 332.86 355.53 333.82ZM350.19 332.64C350.684 333.293 351.364 333.62 352.23 333.62C353.097 333.62 353.77 333.293 354.25 332.64C354.744 331.973 354.99 331.053 354.99 329.88C354.99 328.72 354.744 327.807 354.25 327.14C353.77 326.473 353.097 326.14 352.23 326.14C351.364 326.14 350.684 326.473 350.19 327.14C349.71 327.793 349.47 328.713 349.47 329.9C349.47 331.06 349.71 331.973 350.19 332.64ZM365.763 335V328.82C365.763 327.9 365.563 327.227 365.163 326.8C364.776 326.36 364.243 326.14 363.563 326.14C361.989 326.14 361.203 327.02 361.203 328.78V335H359.463V324.78H361.203V325.82C361.829 324.967 362.709 324.54 363.843 324.54C365.043 324.54 365.949 324.907 366.563 325.64C367.189 326.36 367.503 327.52 367.503 329.12V335H365.763ZM372.292 334.86C372.026 335.127 371.699 335.26 371.312 335.26C370.926 335.26 370.599 335.127 370.332 334.86C370.066 334.58 369.932 334.26 369.932 333.9C369.932 333.527 370.066 333.207 370.332 332.94C370.599 332.66 370.926 332.52 371.312 332.52C371.699 332.52 372.026 332.66 372.292 332.94C372.572 333.22 372.712 333.54 372.712 333.9C372.712 334.26 372.572 334.58 372.292 334.86Z" fill="white"/>
<g filter="url(#filter1_di_263_3831)">
<path d="M241.475 131.798C241.425 132.568 241.371 133.341 241.318 134.111L241.703 134.281C241.969 133.982 242.196 133.651 242.378 133.295C244.614 127.016 248.956 123.097 255.567 121.673C261.809 120.332 268.869 123.086 272.576 128.351C270.923 129.255 269.248 130.117 267.62 131.078C266.837 131.53 266.137 132.119 265.402 132.646L264.613 131.939C263.554 130.971 262.265 130.283 260.866 129.94C259.466 129.597 258.001 129.611 256.608 129.979C255.215 130.347 253.939 131.058 252.899 132.045C251.859 133.033 251.089 134.265 250.66 135.626C250.274 136.82 250.281 137.745 251.546 138.395C251.956 138.61 252.26 139.055 252.595 139.394C250.453 140.687 248.331 141.961 246.228 143.279C245.882 143.567 245.578 143.901 245.324 144.271C238.864 140.432 231.468 143.671 229.39 149.642C229.08 150.42 228.542 151.089 227.843 151.56C226.94 152.125 226.169 152.874 225.582 153.757C224.994 154.64 224.604 155.637 224.436 156.68C223.029 157.408 221.633 158.149 220.215 158.852C218.962 159.474 217.69 160.053 216.426 160.653C215.333 157.087 215.712 153.523 217.648 150.49C220.008 146.817 222.947 143.512 225.636 140.047C225.661 140.016 225.715 140.005 225.754 139.987C226.31 139.863 226.852 139.684 227.372 139.454C230.207 137.89 233.004 136.255 235.843 134.697C237.689 133.691 239.593 132.766 241.475 131.798Z" fill="white"/>
<path d="M216.415 160.664C217.679 160.064 218.951 159.484 220.204 158.863C221.633 158.157 223.018 157.418 224.425 156.691C224.358 161.088 227.804 163.754 231.729 163.62C236.525 163.45 241.328 163.62 246.128 163.62C245.883 163.955 245.595 164.256 245.271 164.517C241.557 166.685 237.821 168.818 234.111 170.997C233.753 171.205 233.55 171.668 233.271 172.01C230.772 172.162 228.272 172.109 225.904 171.159C224.9 170.757 224.436 171.117 223.815 171.866C219.665 176.87 215.43 181.806 211.266 186.796C208.766 189.788 205.712 189.653 203.37 186.86C199.877 182.693 196.316 178.579 192.788 174.443C193.224 174.249 193.67 174.09 194.092 173.85C196.174 172.727 198.248 171.59 200.327 170.46L207.169 178.498C207.345 178.398 207.509 178.28 207.659 178.144C211.005 174.03 214.362 169.923 217.658 165.784C217.915 165.456 217.844 164.725 217.704 164.262C217.34 163.03 216.851 161.854 216.415 160.664Z" fill="white"/>
<path d="M233.271 172.01C233.55 171.657 233.754 171.205 234.111 170.997C237.821 168.818 241.557 166.685 245.271 164.517C245.596 164.256 245.885 163.953 246.128 163.616C249.599 163.616 253.074 163.68 256.542 163.528C257.816 163.462 259.057 163.099 260.163 162.468C262.959 160.844 264.166 156.917 261.795 153.287C264.677 151.662 267.544 150.013 270.448 148.431C271.273 148.043 272.124 147.711 272.994 147.435C272.344 148.269 271.776 149.183 271.023 149.907C270.269 150.631 270.155 151.164 270.534 152.093C271.37 154.024 271.745 156.12 271.63 158.218C271.514 160.316 270.91 162.359 269.866 164.188C267.112 169.192 262.723 171.918 256.959 172.003C249.063 172.141 241.167 172.024 233.271 172.01Z" fill="white"/>
<path d="M272.994 147.446C272.124 147.721 271.273 148.054 270.448 148.442C267.544 150.024 264.677 151.673 261.795 153.297C261.048 152.447 260.109 151.783 259.054 151.359C257.999 150.935 256.858 150.763 255.724 150.857C254.881 150.91 254.031 150.857 253.188 150.857C251.324 150.885 250.077 150.027 249.017 148.509C247.956 146.99 246.56 145.684 245.313 144.271C245.567 143.901 245.871 143.567 246.217 143.279C248.32 141.954 250.456 140.68 252.584 139.394C253.267 140.1 254.042 140.711 254.606 141.485C255.113 142.191 255.677 142.311 256.491 142.428C258.513 142.658 260.509 143.068 262.455 143.653C264.777 144.416 264.955 144.493 266.202 142.325C266.546 141.709 266.814 141.055 267.001 140.376C267.812 137.551 267.066 134.99 265.391 132.646C266.127 132.119 266.819 131.53 267.609 131.078C269.237 130.131 270.912 129.255 272.565 128.351C276.808 133.747 276.997 142.265 272.994 147.446Z" fill="white"/>
<path d="M173.097 127.553C173.35 123.16 174.354 118.965 176.439 115.052C177.068 114.939 177.782 114.978 178.304 114.699C182.635 112.266 186.924 109.755 191.238 107.283C197.249 103.854 203.277 100.45 209.28 97.01C209.666 96.7875 209.919 96.3425 210.237 96C214.112 96.0742 217.708 97.2077 221.19 98.8004C221.547 98.9629 221.904 99.0971 222.262 99.2489C222.008 99.5809 221.829 100.033 221.494 100.231C219.708 101.29 217.898 102.254 216.137 103.328C215.374 103.851 214.646 104.423 213.959 105.04C213.244 104.913 212.562 104.783 211.862 104.666C203.673 103.314 196.435 105.344 190.167 110.698C186.357 113.954 183.964 118.114 182.41 122.803C181.2 123.407 179.982 124.001 178.778 124.615C176.904 125.586 175.007 126.586 173.097 127.553Z" fill="white"/>
<path d="M210.237 96C209.919 96.3531 209.666 96.7875 209.28 97.01C203.277 100.45 197.248 103.854 191.238 107.283C186.924 109.755 182.635 112.252 178.303 114.699C177.782 114.992 177.067 114.953 176.439 115.052C178.842 109.603 182.742 105.394 187.56 101.965C191.452 99.1924 195.774 97.2254 200.484 96.4909C203.694 95.9965 206.994 96.1413 210.237 96Z" fill="white"/>
<path d="M200.327 170.464C198.249 171.594 196.174 172.731 194.092 173.854C193.67 174.08 193.224 174.253 192.788 174.447L184.467 162.546C184.935 162.302 185.41 162.073 185.874 161.819C187.864 160.724 189.853 159.619 191.838 158.52C194.667 162.501 197.496 166.482 200.327 170.464Z" fill="white"/>
<path d="M241.474 131.798C239.592 132.766 237.689 133.691 235.832 134.708C232.993 136.265 230.196 137.886 227.361 139.465C226.841 139.695 226.299 139.874 225.743 139.998C227.472 138.716 229.104 137.275 230.961 136.219C232.007 135.626 232.596 135.043 232.682 133.903C232.775 132.681 233.039 131.431 232.964 130.237C232.786 127.765 232.425 125.293 232.139 122.821C232.637 122.657 233.123 122.462 233.596 122.238C235.635 121.123 237.66 119.975 239.689 118.841C241.242 122.977 241.852 127.402 241.474 131.798Z" fill="white"/>
<path d="M213.987 105.044C214.675 104.427 215.402 103.855 216.165 103.331C217.926 102.272 219.736 101.297 221.522 100.234C221.858 100.036 222.036 99.5844 222.29 99.2524C226.435 101.137 230.097 103.922 233.004 107.399C231.657 108.293 230.3 109.165 228.964 110.087C227.968 110.768 227.004 111.499 226.022 112.206C222.683 108.855 218.544 106.392 213.987 105.044Z" fill="white"/>
<path d="M173.096 127.553C174.996 126.572 176.893 125.586 178.81 124.615C180.014 124.001 181.232 123.407 182.442 122.803C181.285 127.363 181.407 131.939 182.257 136.527C181.271 136.982 180.282 137.424 179.303 137.89C177.66 138.677 176.028 139.475 174.389 140.27C173.396 136.085 172.739 131.883 173.096 127.553Z" fill="white"/>
<path d="M226.04 112.188C227.022 111.482 227.986 110.775 228.982 110.069C230.318 109.158 231.675 108.275 233.021 107.382C236.095 110.642 238.376 114.553 239.689 118.817C237.66 119.95 235.635 121.098 233.596 122.214C233.123 122.438 232.637 122.632 232.139 122.796C230.889 118.873 228.81 115.257 226.04 112.188Z" fill="white"/>
<path d="M191.838 158.52C189.853 159.619 187.864 160.724 185.874 161.819C185.41 162.073 184.935 162.302 184.467 162.546L178.607 151.694C179.307 151.17 180.036 150.685 180.789 150.239C182.489 149.339 184.232 148.516 185.957 147.661L191.838 158.52Z" fill="white"/>
<path d="M185.953 147.661C184.228 148.516 182.485 149.339 180.785 150.239C180.032 150.685 179.303 151.17 178.603 151.694C177.279 148.179 175.956 144.664 174.632 141.149C174.525 140.863 174.464 140.563 174.382 140.27C176.021 139.475 177.653 138.677 179.296 137.89C180.274 137.424 181.264 136.982 182.246 136.527L185.953 147.661Z" fill="white"/>
<path d="M246.903 120.187C245.885 119.558 244.549 119.145 243.914 118.248C242.734 116.544 241.775 114.702 241.057 112.764C240.307 110.786 241.435 108.724 243.367 107.869C245.299 107.015 247.542 107.548 248.66 109.349C249.627 110.882 250.463 112.492 251.16 114.162C252.27 116.899 250.07 119.897 247.11 119.862L246.903 120.187Z" fill="white"/>
<path d="M285.707 135.241C286.836 135.322 288.125 135.375 289.404 135.52C291.361 135.739 292.996 137.639 293 139.652C293 141.824 291.418 143.787 289.247 143.89C287.294 143.986 285.336 143.885 283.404 143.586C281.322 143.268 279.951 141.114 280.151 138.932C280.329 137.01 282.172 135.329 284.218 135.234C284.661 135.224 285.107 135.241 285.707 135.241Z" fill="white"/>
<path d="M285.182 158.287C284.968 160.085 284.186 161.36 282.683 162.129C281.254 162.867 279.679 162.938 278.397 161.918C276.827 160.683 275.369 159.318 274.037 157.835C272.751 156.387 273.04 154.092 274.43 152.637C275.919 151.076 278.151 150.691 279.865 151.969C281.385 153.123 282.791 154.417 284.065 155.833C284.64 156.465 284.822 157.457 285.182 158.287Z" fill="white"/>
<path d="M269.723 110.122C269.416 111.319 269.073 113.283 268.398 115.126C267.684 117.079 265.316 118.033 263.305 117.446C261.163 116.821 259.945 114.84 260.359 112.467C260.622 110.951 260.979 109.454 261.431 107.982C261.73 106.976 262.403 106.118 263.313 105.58C264.224 105.042 265.306 104.863 266.345 105.079C268.387 105.45 269.759 107.191 269.723 110.122Z" fill="white"/>
<path d="M282.733 116.037C284.611 116.147 285.997 117.065 286.693 118.756C287.39 120.448 287.111 122.02 285.758 123.213C284.367 124.443 282.878 125.559 281.304 126.55C279.615 127.61 277.19 127.062 275.994 125.569C274.687 123.944 274.601 121.497 276.087 120.13C277.616 118.8 279.24 117.581 280.947 116.482C281.415 116.161 282.122 116.175 282.733 116.037Z" fill="white"/>
<path d="M221.986 127.027C223.661 135.033 217.94 143.028 209.683 144.282C205.262 144.956 201.323 143.978 197.898 141.103C198.135 140.795 198.411 140.519 198.72 140.281C200.045 139.493 201.427 138.797 202.737 137.992C203.77 137.36 204.73 136.618 205.723 135.926C209.873 136.279 211.748 135.146 213.605 131.215C215.465 130.265 217.322 129.305 219.19 128.365C220.108 127.913 221.051 127.476 221.986 127.027Z" fill="white"/>
<path d="M192.549 131.794C191.727 127.836 192.838 124.283 195.088 121.077C196.836 118.576 199.337 116.685 202.235 115.67C205.133 114.656 208.28 114.571 211.23 115.426C213.119 115.991 214.801 117.241 216.587 118.177C214.087 119.59 211.566 121.002 209.087 122.461C208.787 122.638 208.619 123.03 208.373 123.323C204.937 123.012 202.627 124.58 201.156 127.56C200.048 128.079 198.931 128.581 197.834 129.121C196.059 129.997 194.306 130.901 192.549 131.794Z" fill="white"/>
<path d="M208.362 123.33C208.591 123.037 208.759 122.645 209.077 122.468C211.576 121.02 214.076 119.608 216.576 118.184C219.626 120.388 221.329 123.393 221.99 127.013C221.054 127.461 220.112 127.899 219.183 128.365C217.315 129.305 215.458 130.265 213.598 131.215C213.598 130.262 213.741 129.273 213.544 128.358C212.951 125.6 211.019 124.078 208.362 123.33Z" fill="white"/>
<path d="M192.549 131.794C194.306 130.901 196.059 129.997 197.824 129.118C198.92 128.577 200.038 128.076 201.145 127.557C200.448 131.851 201.923 134.56 205.712 135.94C204.72 136.647 203.759 137.374 202.727 138.006C201.416 138.811 200.034 139.507 198.709 140.295C198.401 140.533 198.125 140.809 197.888 141.117C196.396 140.011 195.152 138.612 194.233 137.007C193.315 135.403 192.741 133.628 192.549 131.794Z" fill="white"/>
</g>
<defs>
<filter id="filter0_di_263_3831" x="114.35" y="235.34" width="206.353" height="31.69" filterUnits="userSpaceOnUse" color-interpolation-filters="sRGB">
<feFlood flood-opacity="0" result="BackgroundImageFix"/>
<feColorMatrix in="SourceAlpha" type="matrix" values="0 0 0 0 0 0 0 0 0 0 0 0 0 0 0 0 0 0 127 0" result="hardAlpha"/>
<feOffset dx="-2" dy="3"/>
<feGaussianBlur stdDeviation="0.5"/>
<feColorMatrix type="matrix" values="0 0 0 0 0 0 0 0 0 0 0 0 0 0 0 0 0 0 0.1 0"/>
<feBlend mode="normal" in2="BackgroundImageFix" result="effect1_dropShadow_263_3831"/>
<feBlend mode="normal" in="SourceGraphic" in2="effect1_dropShadow_263_3831" result="shape"/>
<feColorMatrix in="SourceAlpha" type="matrix" values="0 0 0 0 0 0 0 0 0 0 0 0 0 0 0 0 0 0 127 0" result="hardAlpha"/>
<feOffset dx="-1" dy="1"/>
<feGaussianBlur stdDeviation="1"/>
<feComposite in2="hardAlpha" operator="arithmetic" k2="-1" k3="1"/>
<feColorMatrix type="matrix" values="0 0 0 0 1 0 0 0 0 1 0 0 0 0 1 0 0 0 0.25 0"/>
<feBlend mode="normal" in2="shape" result="effect2_innerShadow_263_3831"/>
</filter>
<filter id="filter1_di_263_3831" x="72.998" y="0" width="320.002" height="292.997" filterUnits="userSpaceOnUse" color-interpolation-filters="sRGB">
<feFlood flood-opacity="0" result="BackgroundImageFix"/>
<feColorMatrix in="SourceAlpha" type="matrix" values="0 0 0 0 0 0 0 0 0 0 0 0 0 0 0 0 0 0 127 0" result="hardAlpha"/>
<feOffset dy="4"/>
<feGaussianBlur stdDeviation="50"/>
<feComposite in2="hardAlpha" operator="out"/>
<feColorMatrix type="matrix" values="0 0 0 0 0 0 0 0 0 0 0 0 0 0 0 0 0 0 0.2 0"/>
<feBlend mode="normal" in2="BackgroundImageFix" result="effect1_dropShadow_263_3831"/>
<feBlend mode="normal" in="SourceGraphic" in2="effect1_dropShadow_263_3831" result="shape"/>
<feColorMatrix in="SourceAlpha" type="matrix" values="0 0 0 0 0 0 0 0 0 0 0 0 0 0 0 0 0 0 127 0" result="hardAlpha"/>
<feOffset dx="-18" dy="11"/>
<feGaussianBlur stdDeviation="15"/>
<feComposite in2="hardAlpha" operator="arithmetic" k2="-1" k3="1"/>
<feColorMatrix type="matrix" values="0 0 0 0 1 0 0 0 0 1 0 0 0 0 1 0 0 0 1 0"/>
<feBlend mode="normal" in2="shape" result="effect2_innerShadow_263_3831"/>
</filter>
</defs>
</svg>
