<svg width="32" height="33" viewBox="0 0 32 33" fill="none" xmlns="http://www.w3.org/2000/svg">
<g filter="url(#filter0_d_857_3683)">
<path d="M23.6125 5.17524L23.525 9.91271C23.5125 10.5627 23.9251 11.4252 24.4501 11.8127L27.55 14.1627C29.5375 15.6627 29.2125 17.5002 26.8375 18.2502L22.8 19.5127C22.125 19.7252 21.4125 20.4627 21.2375 21.1502L20.275 24.8252C19.5125 27.7252 17.6125 28.0127 16.0375 25.4627L13.8375 21.9002C13.4375 21.2502 12.4875 20.7627 11.7375 20.8002L7.56254 21.0127C4.57504 21.1627 3.72503 19.4377 5.67503 17.1627L8.15 14.2877C8.6125 13.7502 8.825 12.7502 8.6125 12.0752L7.35006 8.03771C6.61256 5.66271 7.93754 4.35023 10.3 5.12523L13.9876 6.33773C14.6126 6.53773 15.55 6.40022 16.075 6.01272L19.9251 3.23771C22.0001 1.73771 23.6625 2.61274 23.6125 5.17524Z" stroke="white" stroke-width="1.5" stroke-linecap="round" stroke-linejoin="round"/>
<path d="M29.3874 27.5004L25.6 23.7129" stroke="white" stroke-width="1.5" stroke-linecap="round" stroke-linejoin="round"/>
</g>
<defs>
<filter id="filter0_d_857_3683" x="-1" y="0" width="33" height="34" filterUnits="userSpaceOnUse" color-interpolation-filters="sRGB">
<feFlood flood-opacity="0" result="BackgroundImageFix"/>
<feColorMatrix in="SourceAlpha" type="matrix" values="0 0 0 0 0 0 0 0 0 0 0 0 0 0 0 0 0 0 127 0" result="hardAlpha"/>
<feOffset dx="-2" dy="3"/>
<feGaussianBlur stdDeviation="0.5"/>
<feColorMatrix type="matrix" values="0 0 0 0 0 0 0 0 0 0 0 0 0 0 0 0 0 0 0.1 0"/>
<feBlend mode="normal" in2="BackgroundImageFix" result="effect1_dropShadow_857_3683"/>
<feBlend mode="normal" in="SourceGraphic" in2="effect1_dropShadow_857_3683" result="shape"/>
</filter>
</defs>
</svg>
