<svg width="36" height="36" viewBox="0 0 36 36" fill="none" xmlns="http://www.w3.org/2000/svg">
<path d="M18 28.5C23.799 28.5 28.5 23.799 28.5 18C28.5 12.201 23.799 7.5 18 7.5C12.201 7.5 7.5 12.201 7.5 18C7.5 23.799 12.201 28.5 18 28.5Z" fill="#FFD130"/>
<path d="M18 34.44C17.175 34.44 16.5 33.825 16.5 33V32.88C16.5 32.055 17.175 31.38 18 31.38C18.825 31.38 19.5 32.055 19.5 32.88C19.5 33.705 18.825 34.44 18 34.44ZM28.71 30.21C28.32 30.21 27.945 30.06 27.645 29.775L27.45 29.58C26.865 28.995 26.865 28.05 27.45 27.465C28.035 26.88 28.98 26.88 29.565 27.465L29.76 27.66C30.345 28.245 30.345 29.19 29.76 29.775C29.475 30.06 29.1 30.21 28.71 30.21ZM7.29 30.21C6.9 30.21 6.525 30.06 6.225 29.775C5.64 29.19 5.64 28.245 6.225 27.66L6.42 27.465C7.005 26.88 7.95 26.88 8.535 27.465C9.12 28.05 9.12 28.995 8.535 29.58L8.34 29.775C8.055 30.06 7.665 30.21 7.29 30.21ZM33 19.5H32.88C32.055 19.5 31.38 18.825 31.38 18C31.38 17.175 32.055 16.5 32.88 16.5C33.705 16.5 34.44 17.175 34.44 18C34.44 18.825 33.825 19.5 33 19.5ZM3.12 19.5H3C2.175 19.5 1.5 18.825 1.5 18C1.5 17.175 2.175 16.5 3 16.5C3.825 16.5 4.56 17.175 4.56 18C4.56 18.825 3.945 19.5 3.12 19.5ZM28.515 8.985C28.125 8.985 27.75 8.835 27.45 8.55C26.865 7.965 26.865 7.02 27.45 6.435L27.645 6.24C28.23 5.655 29.175 5.655 29.76 6.24C30.345 6.825 30.345 7.77 29.76 8.355L29.565 8.55C29.28 8.835 28.905 8.985 28.515 8.985ZM7.485 8.985C7.095 8.985 6.72 8.835 6.42 8.55L6.225 8.34C5.64 7.755 5.64 6.81 6.225 6.225C6.81 5.64 7.755 5.64 8.34 6.225L8.535 6.42C9.12 7.005 9.12 7.95 8.535 8.535C8.25 8.835 7.86 8.985 7.485 8.985ZM18 4.56C17.175 4.56 16.5 3.945 16.5 3.12V3C16.5 2.175 17.175 1.5 18 1.5C18.825 1.5 19.5 2.175 19.5 3C19.5 3.825 18.825 4.56 18 4.56Z" fill="#FFD130"/>
</svg>
