<svg width="32" height="32" viewBox="0 0 32 32" fill="none" xmlns="http://www.w3.org/2000/svg">
<path d="M23.935 4.20999L23.83 9.89496C23.815 10.675 24.3101 11.71 24.9401 12.175L28.66 14.9949C31.045 16.7949 30.655 19 27.805 19.9L22.9601 21.4149C22.1501 21.6699 21.2951 22.555 21.0851 23.38L19.93 27.7899C19.015 31.2699 16.735 31.615 14.845 28.555L12.205 24.28C11.725 23.5 10.585 22.915 9.685 22.96L4.67505 23.215C1.09005 23.395 0.0700354 21.325 2.41004 18.595L5.38001 15.145C5.93501 14.5 6.19 13.3 5.935 12.49L4.42008 7.64496C3.53508 4.79496 5.12505 3.21998 7.96005 4.14998L12.3851 5.60498C13.1351 5.84498 14.26 5.67997 14.89 5.21497L19.5101 1.88496C22.0001 0.0849632 23.995 1.13499 23.935 4.20999Z" stroke="white" stroke-width="2" stroke-linecap="round" stroke-linejoin="round"/>
</svg>
