<svg width="26" height="26" viewBox="0 0 26 26" fill="none" xmlns="http://www.w3.org/2000/svg">
<path d="M23.0501 6.525L15.85 1.4875C13.8875 0.112502 10.875 0.187502 8.98755 1.65L2.72505 6.5375C1.47505 7.5125 0.487549 9.5125 0.487549 11.0875V19.7125C0.487549 22.9 3.07505 25.5 6.26255 25.5H19.7375C22.925 25.5 25.5126 22.9125 25.5126 19.725V11.25C25.5126 9.5625 24.4251 7.4875 23.0501 6.525ZM13.9375 20.5C13.9375 21.0125 13.5125 21.4375 13 21.4375C12.4875 21.4375 12.0625 21.0125 12.0625 20.5V16.75C12.0625 16.2375 12.4875 15.8125 13 15.8125C13.5125 15.8125 13.9375 16.2375 13.9375 16.75V20.5Z" fill="white"/>
</svg>
