<svg width="110" height="18" viewBox="0 0 110 18" fill="none" xmlns="http://www.w3.org/2000/svg">
<path d="M2.88471 14.2009L0 0.837062H3.01933L4.42322 7.95805C4.44886 8.04715 4.46809 8.16806 4.48091 8.32079C4.49373 8.47352 4.50655 8.57533 4.51937 8.62624C4.53219 8.56261 4.54501 8.45442 4.55784 8.3017C4.57066 8.14897 4.58989 8.02169 4.61553 7.91987L6.32712 0.837062H8.88489L10.6157 7.93896C10.6414 8.05351 10.667 8.19351 10.6926 8.35897C10.7183 8.52442 10.7311 8.62624 10.7311 8.66443C10.7439 8.61352 10.7567 8.54352 10.7696 8.45442C10.7824 8.36533 10.7952 8.2826 10.808 8.20624C10.8209 8.12987 10.8337 8.05351 10.8465 7.97715L12.2312 0.837062H15.2505L12.3465 14.2009H9.57722L7.69255 6.7744C7.66691 6.65986 7.62845 6.41167 7.57716 6.02985C7.52588 6.46258 7.48742 6.7044 7.46177 6.75531L5.65402 14.2009H2.88471Z" fill="white"/>
<path d="M20.3829 14.4299C18.9341 14.4299 17.793 13.9781 16.9597 13.0745C16.1263 12.1708 15.7096 10.9172 15.7096 9.31353C15.7096 7.74805 16.1263 6.50713 16.9597 5.59075C17.8058 4.67438 18.9469 4.21619 20.3829 4.21619C21.6906 4.21619 22.7547 4.61074 23.5753 5.39984C24.3958 6.18894 24.8061 7.33441 24.8061 8.83625C24.8061 9.45989 24.7804 9.93717 24.7291 10.2681H18.4405C18.4661 10.879 18.6584 11.3372 19.0174 11.6426C19.3764 11.9354 19.8316 12.0817 20.3829 12.0817C21.2803 12.0817 22.0175 11.7381 22.5945 11.0508L24.2099 12.6545C23.2227 13.8381 21.947 14.4299 20.3829 14.4299ZM18.4597 8.18715H22.1329C21.9919 7.10532 21.3701 6.5644 20.2675 6.5644C19.7674 6.5644 19.3572 6.71077 19.0367 7.0035C18.7161 7.2835 18.5238 7.67805 18.4597 8.18715Z" fill="white"/>
<path d="M32.6786 14.2009V13.4754C32.0888 14.1118 31.2747 14.4299 30.2362 14.4299C29.1464 14.4299 28.2554 14.1563 27.5631 13.609C26.8836 13.049 26.5438 12.2536 26.5438 11.2226C26.5438 10.2172 26.9412 9.44716 27.7361 8.91261C28.531 8.36533 29.4606 8.09169 30.5247 8.09169C31.4478 8.09169 32.1658 8.20624 32.6786 8.43533V7.90078C32.6786 7.45532 32.5376 7.11804 32.2555 6.88895C31.9735 6.64713 31.5824 6.52622 31.0824 6.52622C30.0183 6.52622 28.967 6.86986 27.9285 7.55714L27.063 5.43803C28.2682 4.62347 29.6721 4.21619 31.2747 4.21619C34.0569 4.21619 35.4479 5.48894 35.4479 8.03442V14.2009H32.6786ZM30.7747 12.1008C31.467 12.1008 32.1017 11.8717 32.6786 11.4136V10.5354C32.1658 10.3826 31.6081 10.3063 31.0055 10.3063C29.8516 10.3063 29.2747 10.6181 29.2747 11.2417C29.2747 11.8145 29.7747 12.1008 30.7747 12.1008Z" fill="white"/>
<path d="M41.1066 14.4299C39.4527 14.4299 38.6258 13.539 38.6258 11.7572V6.86986H37.2796V4.44529H38.6258V1.73434L41.3951 0.417057V4.44529H43.5298V6.86986H41.3951V11.4899C41.3951 11.6681 41.4464 11.8081 41.5489 11.9099C41.6643 11.999 41.7989 12.0436 41.9528 12.0436C42.5169 12.0436 43.081 11.9163 43.6452 11.6617L43.3374 13.9909C42.7349 14.2836 41.9913 14.4299 41.1066 14.4299Z" fill="white"/>
<path d="M45.8638 14.2009V1.69616L48.6524 0.417057V5.34257C49.2806 4.59165 50.1716 4.21619 51.3255 4.21619C52.2358 4.21619 53.0307 4.50256 53.7102 5.07529C54.3897 5.64803 54.7295 6.57713 54.7295 7.8626V14.2009H51.9409V8.96988C51.9409 8.24442 51.8191 7.71623 51.5755 7.38532C51.3448 7.05441 50.9473 6.88895 50.3832 6.88895C49.2293 6.88895 48.6524 7.56987 48.6524 8.9317V14.2009H45.8638Z" fill="white"/>
<path d="M61.719 14.4299C60.2703 14.4299 59.1292 13.9781 58.2959 13.0745C57.4625 12.1708 57.0458 10.9172 57.0458 9.31353C57.0458 7.74805 57.4625 6.50713 58.2959 5.59075C59.142 4.67438 60.2831 4.21619 61.719 4.21619C63.0268 4.21619 64.0909 4.61074 64.9114 5.39984C65.732 6.18894 66.1422 7.33441 66.1422 8.83625C66.1422 9.45989 66.1166 9.93717 66.0653 10.2681H59.7767C59.8023 10.879 59.9946 11.3372 60.3536 11.6426C60.7126 11.9354 61.1677 12.0817 61.719 12.0817C62.6165 12.0817 63.3537 11.7381 63.9306 11.0508L65.5461 12.6545C64.5589 13.8381 63.2832 14.4299 61.719 14.4299ZM59.7959 8.18715H63.4691C63.3281 7.10532 62.7062 6.5644 61.6036 6.5644C61.1036 6.5644 60.6934 6.71077 60.3728 7.0035C60.0523 7.2835 59.86 7.67805 59.7959 8.18715Z" fill="white"/>
<path d="M68.4569 14.2009V4.44529H71.2455V5.32348C71.3737 5.06893 71.6045 4.82075 71.9378 4.57892C72.2712 4.3371 72.6622 4.21619 73.1109 4.21619C73.8802 4.21619 74.5276 4.48983 75.0533 5.03711L74.6879 7.55714C74.1494 7.11168 73.5661 6.88895 72.9378 6.88895C71.8096 6.88895 71.2455 7.5635 71.2455 8.91261V14.2009H68.4569Z" fill="white"/>
<path d="M84.936 14.2009L83.9359 11.6045H78.8781L77.878 14.2009H74.6856L79.9935 0.837062H82.8013L88.1284 14.2009H84.936ZM82.9551 8.9317L81.8012 6.04894C81.6218 5.61621 81.4871 5.24075 81.3974 4.92256C81.3461 5.13893 81.2115 5.51439 80.9935 6.04894L79.8396 8.9317H82.9551Z" fill="white"/>
<path d="M94.6729 14.4299C93.8267 14.4299 93.1793 14.1436 92.7305 13.5708V16.7591L89.942 18V4.44529H92.7305V5.11348C93.1664 4.51529 93.8267 4.21619 94.7114 4.21619C95.9422 4.21619 96.923 4.66165 97.6538 5.55257C98.3974 6.43076 98.7692 7.69078 98.7692 9.33262C98.7692 10.8981 98.3845 12.139 97.6153 13.0554C96.846 13.9718 95.8652 14.4299 94.6729 14.4299ZM94.2306 11.7572C94.7819 11.7572 95.2114 11.5472 95.5191 11.1272C95.8268 10.6945 95.9806 10.0963 95.9806 9.33262C95.9806 7.70351 95.3973 6.88895 94.2306 6.88895C93.6023 6.88895 93.1023 7.08623 92.7305 7.48078V11.1272C92.8075 11.2926 92.9805 11.439 93.2498 11.5663C93.519 11.6936 93.8459 11.7572 94.2306 11.7572Z" fill="white"/>
<path d="M105.904 14.4299C105.058 14.4299 104.41 14.1436 103.961 13.5708V16.7591L101.173 18V4.44529H103.961V5.11348C104.397 4.51529 105.058 4.21619 105.942 4.21619C107.173 4.21619 108.154 4.66165 108.885 5.55257C109.628 6.43076 110 7.69078 110 9.33262C110 10.8981 109.615 12.139 108.846 13.0554C108.077 13.9718 107.096 14.4299 105.904 14.4299ZM105.461 11.7572C106.013 11.7572 106.442 11.5472 106.75 11.1272C107.058 10.6945 107.211 10.0963 107.211 9.33262C107.211 7.70351 106.628 6.88895 105.461 6.88895C104.833 6.88895 104.333 7.08623 103.961 7.48078V11.1272C104.038 11.2926 104.211 11.439 104.481 11.5663C104.75 11.6936 105.077 11.7572 105.461 11.7572Z" fill="white"/>
</svg>
